<?xml version="1.0" standalone="no"?>
<!DOCTYPE svg PUBLIC "-//W3C//DTD SVG 20010904//EN"
 "http://www.w3.org/TR/2001/REC-SVG-20010904/DTD/svg10.dtd">
<svg version="1.0" xmlns="http://www.w3.org/2000/svg"
 width="640.000000pt" height="640.000000pt" viewBox="0 0 640.000000 640.000000"
 preserveAspectRatio="xMidYMid meet">
<metadata>
Created by potrace 1.14, written by Peter Selinger 2001-2017
</metadata>
<g transform="translate(0.000000,640.000000) scale(0.100000,-0.100000)"
fill="#000000" stroke="none">
<path d="M400 6200 l0 -200 -200 0 -200 0 0 -200 0 -200 600 0 600 0 0 -199
c0 -225 7 -210 -87 -205 -29 2 -53 -1 -53 -6 0 -4 11 -7 25 -6 13 2 22 -1 19
-5 -6 -11 -43 -6 -52 7 -10 13 -160 16 -168 2 -4 -7 -10 -6 -15 3 -8 11 -11
11 -20 -4 -6 -9 -14 -15 -20 -12 -5 4 -9 -3 -9 -15 0 -12 4 -19 9 -15 6 3 15
-4 21 -15 7 -13 7 -20 0 -20 -5 0 -10 7 -10 15 0 8 -6 14 -12 12 -8 -1 -13 8
-13 23 0 15 5 24 13 23 6 -2 12 2 12 7 0 12 -20 13 -35 2 -16 -11 -10 -50 10
-72 17 -19 17 -20 -6 -29 -13 -5 -19 -10 -12 -10 6 -1 9 -10 6 -21 -3 -11 0
-20 6 -20 6 0 10 5 8 12 -4 20 43 17 54 -3 6 -13 6 -19 -1 -19 -5 0 -10 6 -10
13 0 7 -9 13 -20 14 -11 1 -18 -2 -15 -7 3 -5 -3 -14 -12 -19 -17 -11 -17 -11
0 -22 9 -5 15 -14 12 -20 -4 -5 3 -9 15 -9 12 0 19 4 16 9 -3 5 5 16 19 25 14
9 26 15 26 14 8 -17 3 -51 -7 -55 -8 -3 -11 -9 -8 -14 3 -5 0 -9 -5 -9 -15 0
-14 20 2 26 7 2 13 13 14 24 1 16 -1 18 -17 8 -10 -7 -18 -17 -17 -22 1 -6 -9
-11 -23 -11 -15 0 -24 5 -23 13 2 6 -3 12 -10 12 -7 0 -13 -9 -13 -19 0 -11 4
-17 8 -15 11 7 10 -4 -2 -27 -8 -15 -7 -19 5 -19 8 0 14 6 12 13 -1 7 8 12 23
12 15 0 24 -5 23 -12 -2 -7 6 -13 17 -13 11 0 19 6 17 13 -1 7 8 12 21 12 12
0 22 -4 21 -9 0 -5 5 -13 13 -18 10 -8 10 -9 -2 -5 -8 2 -14 10 -13 16 2 6 -6
11 -17 11 -11 0 -19 -6 -17 -12 1 -8 -8 -13 -23 -13 -15 0 -24 5 -23 13 2 6
-6 12 -18 12 -11 0 -18 -4 -14 -9 3 -6 -3 -15 -12 -20 -17 -11 -17 -11 0 -22
9 -5 15 -14 12 -19 -3 -5 4 -8 15 -7 11 1 20 7 20 14 0 7 5 13 10 13 7 0 7 -6
1 -19 -11 -20 -58 -23 -54 -3 5 20 -14 13 -20 -7 -3 -13 3 -26 17 -36 11 -9
15 -13 7 -9 -7 4 -17 1 -21 -5 -4 -7 -16 -13 -28 -14 -12 0 -23 -6 -26 -13 -2
-6 -15 -11 -28 -10 -17 1 -22 6 -20 21 3 16 2 17 -12 6 -11 -9 -20 -10 -28 -4
-7 6 -22 9 -33 7 -59 -11 -85 -12 -80 -4 3 5 -8 5 -27 0 -20 -6 -36 -6 -44 1
-9 7 -16 5 -24 -11 -6 -11 -15 -18 -21 -15 -5 4 -9 -3 -9 -14 0 -12 5 -20 12
-19 6 2 13 -6 15 -17 3 -18 2 -18 -5 -2 -4 10 -12 18 -17 18 -6 -1 -10 9 -10
22 0 12 5 21 13 20 6 -2 12 4 12 12 0 12 -4 13 -19 6 -17 -9 -19 -22 -18 -106
1 -52 5 -95 9 -95 4 0 7 6 6 13 -2 7 7 12 20 12 12 0 22 -4 21 -9 0 -5 5 -13
13 -18 10 -8 10 -9 -2 -5 -8 2 -14 10 -12 16 1 6 -7 11 -19 11 -11 0 -18 -4
-14 -9 3 -6 -3 -15 -12 -21 -13 -8 -14 -13 -5 -16 6 -3 12 -11 12 -18 0 -6 9
-12 20 -13 11 -1 18 2 15 8 -4 5 4 14 17 20 13 6 25 19 25 30 1 12 -3 17 -9
13 -7 -4 -8 -2 -4 5 4 6 12 9 17 6 15 -10 4 -47 -19 -59 -11 -6 -21 -15 -21
-21 -1 -16 -41 -14 -49 2 -5 8 -8 -20 -8 -64 l0 -78 52 -3 c40 -2 53 1 58 13
3 9 10 13 16 10 5 -3 10 3 10 15 0 12 -4 18 -10 15 -5 -3 -15 4 -21 17 -6 13
-19 25 -30 25 -12 1 -17 -3 -13 -9 4 -7 2 -8 -5 -4 -6 4 -9 12 -6 17 8 12 48
5 53 -9 2 -7 8 -10 13 -7 5 4 6 -1 3 -10 -4 -10 -2 -15 7 -13 9 2 14 -6 14
-22 0 -15 -5 -24 -12 -22 -7 1 -13 -2 -13 -6 0 -5 34 -9 74 -9 56 0 76 3 80
14 3 8 10 11 16 8 5 -3 10 3 10 14 0 12 -6 20 -12 19 -8 -2 -12 6 -11 19 2 14
-2 22 -10 20 -7 -1 -12 8 -12 23 0 15 5 24 13 22 6 -1 12 7 12 18 0 11 -6 19
-12 18 -8 -2 -13 7 -13 22 0 15 5 24 13 22 6 -1 12 7 12 18 0 11 -6 19 -12 18
-8 -2 -13 7 -13 22 0 14 5 24 11 23 5 -1 16 7 22 18 11 17 10 20 -5 17 -10 -2
-26 -14 -35 -28 -10 -14 -18 -20 -18 -15 1 17 29 49 47 51 28 4 34 -6 17 -31
-9 -14 -20 -22 -25 -19 -5 3 -9 -4 -9 -15 0 -12 6 -20 13 -19 7 2 12 -7 12
-22 0 -15 -5 -24 -12 -22 -7 1 -13 -7 -13 -18 0 -11 6 -19 13 -18 7 2 12 -7
12 -22 0 -15 -5 -24 -12 -22 -7 1 -13 -7 -13 -18 0 -11 6 -19 13 -18 7 2 11
-6 10 -19 -2 -14 2 -22 10 -20 7 1 12 -8 12 -23 0 -15 -5 -24 -12 -22 -7 1
-13 -2 -13 -7 0 -5 26 -8 58 -8 l57 2 3 -403 2 -403 -211 1 c-116 1 -213 -1
-216 -4 -4 -3 -13 0 -21 7 -13 9 -14 9 -8 0 4 -7 3 -13 -3 -13 -5 0 -13 5 -17
11 -4 8 -9 7 -14 -2 -6 -9 -12 -10 -22 -2 -7 6 -22 7 -32 4 -16 -6 -17 -9 -4
-13 18 -7 18 -54 0 -50 -7 1 -12 -5 -12 -13 0 -8 -5 -15 -10 -15 -7 0 -7 7 0
20 6 11 15 18 20 15 5 -3 8 4 7 15 -1 11 -7 20 -13 20 -7 0 -15 6 -18 13 -3 8
-8 7 -16 -6 -6 -9 -15 -15 -21 -12 -5 4 -9 -3 -9 -14 0 -12 5 -20 11 -19 6 2
14 -4 16 -12 4 -12 3 -12 -5 -2 -5 8 -13 13 -18 13 -5 -1 -9 9 -9 22 0 12 5
21 12 19 21 -4 14 15 -7 21 -13 3 -24 -1 -29 -12 -10 -17 -47 -26 -56 -12 -2
5 7 7 20 5 16 -1 25 3 25 12 0 11 -5 12 -17 6 -10 -5 -42 -7 -72 -6 -30 1 -48
-2 -40 -6 7 -5 14 -16 15 -24 1 -9 -2 -14 -7 -10 -5 3 -7 10 -4 15 4 5 2 9 -3
9 -5 0 -9 -18 -9 -40 0 -22 4 -40 9 -40 5 0 7 4 4 8 -2 4 0 14 5 22 7 11 8 9
6 -8 -2 -13 -8 -27 -13 -30 -13 -10 -17 -52 -5 -52 6 0 10 5 9 12 -5 20 42 17
53 -3 6 -13 6 -19 -1 -19 -5 0 -10 6 -10 13 0 7 -9 13 -20 14 -11 1 -18 -2
-15 -7 3 -5 -3 -14 -12 -19 -17 -11 -17 -11 0 -22 9 -5 15 -14 12 -20 -4 -5 3
-9 15 -9 12 0 19 4 16 9 -3 5 5 16 19 25 13 9 26 12 29 8 8 -14 0 -43 -15 -53
-12 -8 -12 -10 0 -18 15 -10 23 -39 15 -53 -3 -4 -16 -1 -29 8 -14 9 -22 20
-19 25 3 5 -4 9 -16 9 -12 0 -19 -4 -15 -9 3 -6 -3 -15 -12 -20 -17 -11 -17
-11 0 -22 9 -5 15 -14 12 -19 -3 -5 4 -8 15 -7 11 1 20 7 20 14 0 7 5 13 10
13 7 0 7 -6 1 -19 -11 -20 -58 -23 -53 -3 1 7 -3 12 -9 12 -15 0 -7 -43 11
-58 13 -10 13 -11 -2 -6 -10 3 -18 2 -18 -3 0 -5 40 -9 90 -9 50 -1 90 2 90 7
0 4 -11 6 -25 5 -13 -2 -22 1 -19 5 6 11 43 6 52 -7 10 -13 52 -17 52 -5 0 6
-5 10 -12 9 -20 -5 -17 42 3 53 13 6 19 6 19 -1 0 -5 -6 -10 -13 -10 -7 0 -13
-9 -14 -20 -1 -11 2 -18 7 -15 5 3 14 -3 19 -12 11 -17 11 -17 22 0 5 9 14 15
20 12 5 -4 9 3 9 15 0 12 -4 19 -9 16 -5 -3 -16 5 -25 19 -17 25 -11 35 17 31
18 -2 46 -34 47 -51 0 -5 -8 1 -18 15 -9 14 -25 26 -35 28 -15 3 -16 0 -5 -17
6 -11 17 -19 22 -18 6 1 11 -9 11 -23 0 -15 -5 -24 -13 -22 -6 1 -12 -2 -12
-8 0 -14 48 -8 54 6 6 15 52 12 48 -4 -1 -7 2 -12 8 -12 6 0 10 -73 10 -200
l0 -200 -200 0 -200 0 0 -200 0 -200 200 0 200 0 0 -200 0 -200 200 0 200 0 0
-200 0 -200 200 0 199 0 3 -202 3 -203 -402 3 -403 2 0 -200 0 -200 -200 0
-200 0 0 -200 0 -200 200 0 200 0 0 -200 0 -200 200 0 200 0 0 200 0 200 -200
0 -200 0 0 200 0 200 413 2 c226 0 429 1 450 0 20 -1 37 2 37 7 0 5 -11 8 -25
7 -13 -2 -22 1 -19 5 6 11 43 6 52 -7 10 -13 52 -17 52 -5 0 6 -5 10 -12 8
-20 -4 -17 43 3 54 13 6 19 6 19 -1 0 -5 -6 -10 -13 -10 -7 0 -13 -9 -14 -20
-1 -11 2 -18 7 -15 5 3 14 -3 19 -12 11 -17 11 -17 22 0 5 9 14 15 20 12 5 -4
9 3 9 15 0 12 -4 19 -9 16 -10 -7 -43 39 -34 48 10 10 33 7 33 -4 0 -5 -7 -7
-16 -3 -14 5 -14 3 -3 -15 7 -11 18 -20 23 -19 6 1 11 -9 11 -23 0 -15 -5 -24
-12 -23 -7 2 -13 -1 -13 -6 0 -4 18 -8 40 -8 22 0 40 4 40 8 0 5 -6 8 -12 6
-8 -1 -13 8 -13 23 0 15 5 24 13 23 6 -2 12 6 12 17 0 11 -6 19 -12 17 -8 -1
-13 8 -13 21 0 12 4 22 9 21 5 0 13 5 18 13 8 10 9 10 5 -2 -2 -8 -10 -14 -16
-13 -6 2 -11 -6 -11 -17 0 -11 6 -19 12 -17 8 1 13 -8 13 -23 0 -15 -5 -24
-12 -23 -7 2 -13 -6 -13 -18 0 -11 4 -18 9 -14 6 3 15 -3 20 -12 11 -17 11
-17 22 0 5 9 15 15 20 11 13 -8 7 28 -6 39 -6 5 -4 7 5 4 18 -4 21 -53 3 -50
-7 2 -13 -2 -13 -8 0 -15 43 -7 58 11 10 13 11 13 6 -2 -4 -10 -1 -18 5 -18 8
0 11 -57 9 -202 l-3 -203 -51 3 c-40 2 -53 0 -58 -13 -3 -9 -10 -13 -16 -10
-5 3 -10 -3 -10 -15 0 -12 4 -18 10 -15 5 3 15 -4 21 -17 6 -13 19 -25 30 -25
12 -1 17 3 13 9 -4 7 -2 8 5 4 6 -4 9 -12 6 -17 -8 -12 -48 -5 -53 9 -2 7 -8
10 -13 7 -5 -4 -6 1 -3 10 4 10 2 15 -7 13 -9 -2 -14 6 -14 22 0 15 5 24 13
23 6 -2 12 1 12 5 0 4 -51 8 -114 9 -91 0 -116 -2 -120 -14 -3 -8 -10 -11 -16
-8 -5 3 -10 -3 -10 -14 0 -12 5 -20 12 -18 6 1 13 -7 15 -18 3 -18 2 -18 -5
-2 -4 10 -12 18 -17 18 -6 -1 -10 9 -10 22 0 12 5 21 13 20 6 -2 12 2 12 8 0
6 -8 9 -17 7 -16 -3 -18 -16 -19 -101 0 -53 3 -97 8 -97 4 0 7 6 5 13 -1 7 8
12 21 12 12 0 22 -4 21 -9 0 -5 5 -13 13 -18 10 -8 10 -9 -2 -5 -8 2 -14 10
-13 16 2 6 -6 11 -18 11 -11 0 -18 -4 -14 -9 3 -6 -3 -14 -12 -20 -15 -9 -15
-12 -4 -20 9 -5 10 -11 3 -15 -7 -4 -10 -37 -9 -79 l2 -72 68 -2 c37 -1 67 2
67 7 0 4 -11 7 -25 6 -13 -2 -22 1 -19 5 6 11 43 6 52 -7 10 -14 52 -17 52 -4
0 6 -5 8 -10 5 -6 -3 -13 1 -16 9 -3 9 -9 14 -13 12 -4 -3 -8 5 -8 17 -2 18 1
17 17 -8 11 -17 20 -25 20 -20 0 6 8 1 16 -10 14 -19 16 -19 25 -2 6 9 15 15
20 11 13 -8 7 28 -6 39 -6 5 -4 7 5 4 18 -4 21 -53 3 -50 -7 2 -13 -2 -13 -8
0 -12 42 -8 52 5 9 13 46 18 52 7 3 -4 -6 -7 -19 -5 -14 1 -25 -1 -25 -6 0 -4
22 -7 48 -7 l49 1 -2 186 c0 102 1 191 3 198 3 9 173 12 803 12 l799 0 0 200
0 200 400 0 400 0 0 -200 0 -200 600 0 600 0 0 200 0 200 200 0 200 0 0 600 0
600 -400 0 -400 0 0 -200 0 -200 -200 0 -200 0 0 200 0 200 -400 0 -400 0 0
-200 0 -200 -200 0 -200 0 0 200 0 200 -200 0 -200 0 0 400 0 400 200 0 200 0
0 -200 0 -200 200 0 200 0 0 200 0 200 400 0 400 0 0 -200 0 -200 200 0 200 0
0 200 0 200 400 0 400 0 0 200 0 200 -200 0 -200 0 0 200 0 200 -200 0 -200 0
0 200 0 200 -200 0 -200 0 0 -200 0 -200 -200 0 -200 0 0 200 0 200 -200 0
-200 0 0 -200 0 -200 -200 0 -200 0 0 200 0 200 -200 0 -200 0 0 200 0 200
200 0 200 0 0 200 0 200 200 0 200 0 0 -200 0 -200 200 0 200 0 0 200 0 200
200 0 200 0 0 -200 0 -200 200 0 200 0 0 200 0 200 400 0 400 0 0 400 0 400
-200 0 -200 0 0 200 0 200 -400 0 -400 0 0 -200 0 -200 -200 0 -200 0 0 200 0
200 -200 0 -200 0 0 -200 0 -200 -200 0 -200 0 0 200 0 200 -400 0 -400 0 0
-200 0 -200 -200 0 -200 0 0 200 0 200 -200 0 c-140 0 -200 3 -200 11 0 6 -8
8 -17 5 -16 -5 -16 -4 -3 6 20 17 26 138 8 138 -9 0 -8 4 2 10 13 9 13 12 -3
21 -9 6 -15 14 -12 20 4 5 -3 9 -15 9 -12 0 -19 -4 -16 -9 3 -5 -5 -16 -19
-25 -13 -9 -26 -12 -29 -8 -8 14 0 43 15 53 12 8 12 10 0 18 -15 10 -23 39
-15 53 3 4 16 1 29 -8 14 -9 22 -20 19 -25 -3 -5 4 -9 16 -9 12 0 19 4 15 9
-3 6 3 15 12 20 17 11 17 11 0 22 -9 5 -15 14 -12 19 3 5 -4 8 -15 7 -11 -1
-20 -7 -20 -14 0 -7 -5 -13 -10 -13 -7 0 -7 6 -1 19 11 20 58 23 54 3 -2 -7 2
-12 8 -12 15 0 7 43 -11 58 -13 10 -13 11 3 6 9 -3 17 -2 17 3 0 5 -40 9 -90
9 -49 1 -90 -2 -90 -7 0 -4 11 -6 25 -5 13 2 22 -1 19 -5 -6 -11 -43 -6 -52 7
-10 13 -52 17 -52 5 0 -6 5 -10 12 -8 20 4 17 -43 -3 -54 -13 -6 -19 -6 -19 1
0 5 6 10 13 10 7 0 13 9 14 20 1 11 -2 18 -7 15 -5 -3 -14 3 -19 12 -11 17
-11 17 -22 0 -5 -9 -14 -15 -20 -12 -5 4 -9 -3 -9 -15 0 -12 4 -19 9 -16 5 3
16 -5 25 -19 17 -25 11 -35 -17 -31 -18 2 -46 34 -47 51 0 6 8 -1 18 -15 9
-14 25 -26 35 -28 15 -3 16 0 5 17 -6 11 -17 19 -22 18 -6 -1 -11 9 -11 23 0
15 5 24 13 23 6 -2 12 2 12 8 0 12 -42 8 -52 -5 -9 -13 -46 -18 -52 -7 -3 4 6
7 19 5 14 -1 25 2 25 6 0 5 -192 9 -430 10 l-430 0 0 -200z m1130 180 c0 -5
-4 -10 -10 -10 -5 0 -10 5 -10 10 0 6 5 10 10 10 6 0 10 -4 10 -10z m-180 -20
c0 -5 -4 -10 -10 -10 -5 0 -10 5 -10 10 0 6 5 10 10 10 6 0 10 -4 10 -10z m57
-12 c-3 -8 -6 -5 -6 6 -1 11 2 17 5 13 3 -3 4 -12 1 -19z m90 16 c-3 -3 -12
-4 -19 -1 -8 3 -5 6 6 6 11 1 17 -2 13 -5z m70 0 c-3 -3 -12 -4 -19 -1 -8 3
-5 6 6 6 11 1 17 -2 13 -5z m-310 -10 c-3 -3 -12 -4 -19 -1 -8 3 -5 6 6 6 11
1 17 -2 13 -5z m193 2 c0 -3 -4 -8 -10 -11 -5 -3 -10 -1 -10 4 0 6 5 11 10 11
6 0 10 -2 10 -4z m-226 -36 c0 -13 -6 -25 -14 -28 -9 -2 -11 0 -5 5 6 4 10 15
10 23 0 8 -4 19 -10 23 -6 5 -4 7 5 5 8 -3 14 -15 14 -28z m284 9 c2 -8 0 -10
-5 -4 -11 14 -47 19 -38 6 3 -6 -4 -16 -17 -22 -13 -6 -25 -19 -25 -30 -1 -12
3 -17 9 -13 7 4 8 2 4 -5 -11 -17 -26 -3 -23 21 2 11 14 27 28 34 13 7 20 13
16 14 -5 0 -5 4 -2 10 9 14 48 6 53 -11z m-248 -9 c0 -5 -4 -10 -10 -10 -5 0
-10 5 -10 10 0 6 5 10 10 10 6 0 10 -4 10 -10z m167 4 c-2 -3 -17 -7 -33 -10
-17 -2 -24 -1 -17 4 13 8 58 14 50 6z m56 -19 c-3 -9 -8 -14 -10 -11 -3 3 -2
9 2 15 9 16 15 13 8 -4z m-197 -31 c3 -16 2 -26 -1 -23 -3 4 -8 19 -11 35 -3
16 -2 26 1 23 3 -4 8 -19 11 -35z m284 26 c0 -5 -4 -10 -10 -10 -5 0 -10 5
-10 10 0 6 5 10 10 10 6 0 10 -4 10 -10z m-200 -10 c0 -5 -5 -10 -11 -10 -5 0
-7 5 -4 10 3 6 8 10 11 10 2 0 4 -4 4 -10z m27 -12 c-3 -8 -6 -5 -6 6 -1 11 2
17 5 13 3 -3 4 -12 1 -19z m-140 6 c-3 -3 -12 -4 -19 -1 -8 3 -5 6 6 6 11 1
17 -2 13 -5z m204 -9 c0 -6 7 -14 15 -18 8 -4 14 -13 14 -18 0 -12 -26 12 -27
25 -1 5 -7 13 -15 18 -11 8 -11 9 0 6 8 -2 13 -8 13 -13z m-134 -1 c-3 -3 -12
-4 -19 -1 -8 3 -5 6 6 6 11 1 17 -2 13 -5z m-62 -35 c0 -19 -5 -24 -25 -24
-19 0 -24 5 -23 23 1 32 1 32 26 28 16 -2 22 -10 22 -27z m120 11 c0 -7 -6
-14 -13 -16 -7 -1 -8 0 -2 3 16 8 12 19 -9 20 -13 1 -18 -5 -17 -20 1 -17 -5
-22 -24 -22 -26 0 -36 26 -12 31 7 1 8 0 2 -3 -16 -8 -12 -19 9 -20 13 -1 18
4 16 15 -1 9 -1 20 2 24 7 13 48 2 48 -12z m85 -15 c0 -1 -12 -2 -26 -2 -17 0
-22 2 -13 7 10 7 39 3 39 -5z m-60 -15 c0 -5 -4 -10 -10 -10 -5 0 -10 5 -10
10 0 6 5 10 10 10 6 0 10 -4 10 -10z m40 -10 c0 -5 -7 -10 -15 -10 -8 0 -14
-6 -12 -12 1 -8 -8 -13 -20 -13 -13 0 -23 4 -22 10 0 5 -8 13 -18 17 -16 7
-16 8 2 5 11 -2 19 -9 18 -15 -2 -7 6 -12 18 -12 11 0 18 4 14 9 -3 6 3 14 12
20 23 13 23 13 23 1z m27 -12 c-3 -8 -6 -5 -6 6 -1 11 2 17 5 13 3 -3 4 -12 1
-19z m-220 -4 c-3 -3 -12 -4 -19 -1 -8 3 -5 6 6 6 11 1 17 -2 13 -5z m70 0
c-3 -3 -12 -4 -19 -1 -8 3 -5 6 6 6 11 1 17 -2 13 -5z m-103 -34 c0 -13 -6
-25 -14 -28 -9 -2 -11 0 -5 5 6 4 10 15 10 23 0 8 -4 19 -10 23 -6 5 -4 7 5 5
8 -3 14 -15 14 -28z m66 20 c0 -5 -4 -10 -10 -10 -5 0 -10 5 -10 10 0 6 5 10
10 10 6 0 10 -4 10 -10z m65 2 c-5 -4 -10 -14 -10 -22 0 -8 5 -19 10 -23 6 -5
4 -7 -5 -5 -8 3 -14 14 -13 26 1 31 2 32 16 32 7 0 8 -3 2 -8z m111 -24 c-1
-12 -9 -24 -17 -26 -8 -2 -10 0 -4 5 6 4 11 17 13 28 3 20 2 20 -13 1 -8 -11
-15 -15 -15 -10 0 15 22 34 31 28 5 -3 7 -15 5 -26z m104 22 c0 -5 -4 -10 -10
-10 -5 0 -10 5 -10 10 0 6 5 10 10 10 6 0 10 -4 10 -10z m-310 -20 c0 -5 -4
-10 -10 -10 -5 0 -10 5 -10 10 0 6 5 10 10 10 6 0 10 -4 10 -10z m60 0 c0 -5
-4 -10 -10 -10 -5 0 -10 5 -10 10 0 6 5 10 10 10 6 0 10 -4 10 -10z m175 0 c3
-5 1 -10 -4 -10 -6 0 -11 5 -11 10 0 6 2 10 4 10 3 0 8 -4 11 -10z m33 -10
c-7 -10 -14 -18 -15 -16 -6 6 9 36 18 36 5 0 4 -9 -3 -20z m37 -9 c-3 -6 -11
-9 -16 -6 -5 4 -9 -3 -9 -15 0 -12 4 -19 9 -16 5 3 16 -5 25 -19 9 -13 12 -26
8 -29 -14 -8 -43 0 -53 15 -5 8 -9 10 -9 4 0 -5 -6 -3 -13 5 -7 8 -20 16 -30
18 -15 3 -16 0 -5 -17 6 -11 17 -19 22 -18 6 1 11 -9 11 -23 0 -15 -5 -24 -12
-22 -7 1 -13 -2 -13 -7 0 -5 26 -8 58 -8 l57 2 3 -202 2 -203 -200 0 -200 0 0
199 c0 135 4 202 11 207 8 4 7 9 -2 16 -11 8 -11 9 1 5 8 -2 14 -9 13 -13 -2
-13 206 -14 213 -2 4 6 10 5 15 -3 8 -11 11 -11 20 4 6 9 14 15 20 12 5 -4 9
3 9 15 0 12 -4 19 -9 16 -5 -3 -16 5 -25 19 -9 13 -12 26 -8 29 14 8 43 0 53
-15 5 -8 9 -9 9 -4 0 6 6 3 13 -5 7 -8 20 -16 30 -18 15 -3 16 0 5 17 -6 11
-17 19 -22 18 -6 -1 -11 9 -11 23 0 15 5 24 13 23 6 -2 12 2 12 9 0 6 3 9 6 5
3 -3 3 -11 -1 -16z m-275 -1 c0 -5 -4 -10 -10 -10 -5 0 -10 5 -10 10 0 6 5 10
10 10 6 0 10 -4 10 -10z m132 -5 c-2 -5 5 -13 15 -17 16 -7 16 -8 -2 -5 -11 2
-19 9 -17 15 1 7 -7 12 -18 12 -11 0 -19 -5 -17 -12 1 -6 -7 -13 -18 -15 l-20
-3 20 9 c11 5 16 10 12 10 -5 1 -5 6 -2 12 8 13 51 8 47 -6z m-165 -11 c-3 -3
-12 -4 -19 -1 -8 3 -5 6 6 6 11 1 17 -2 13 -5z m70 0 c-3 -3 -12 -4 -19 -1 -8
3 -5 6 6 6 11 1 17 -2 13 -5z m170 0 c-3 -3 -12 -4 -19 -1 -8 3 -5 6 6 6 11 1
17 -2 13 -5z m93 -4 c0 -5 -4 -10 -10 -10 -5 0 -10 5 -10 10 0 6 5 10 10 10 6
0 10 -4 10 -10z m-325 -41 c0 -19 -5 -24 -25 -24 -19 0 -24 5 -23 23 1 32 1
32 26 28 16 -2 22 -10 22 -27z m79 1 c0 -19 -5 -25 -23 -26 -12 -1 -25 5 -28
12 -9 23 4 41 28 40 18 -1 23 -7 23 -26z m66 20 c0 -5 -4 -10 -10 -10 -5 0
-10 5 -10 10 0 6 5 10 10 10 6 0 10 -4 10 -10z m-30 -20 c0 -5 -4 -10 -10 -10
-5 0 -10 5 -10 10 0 6 5 10 10 10 6 0 10 -4 10 -10z m65 -1 c11 -16 1 -19 -13
-3 -7 8 -8 14 -3 14 5 0 13 -5 16 -11z m-35 -19 c0 -5 -4 -10 -10 -10 -5 0
-10 5 -10 10 0 6 5 10 10 10 6 0 10 -4 10 -10z m-27 -28 c-2 -7 6 -12 17 -12
11 0 19 5 18 11 -2 6 4 14 12 16 12 4 12 3 2 -5 -8 -5 -13 -13 -13 -18 1 -5
-8 -9 -19 -9 -11 0 -20 4 -19 10 0 5 -8 13 -18 17 -16 7 -16 8 2 5 11 -2 19
-9 18 -15z m87 8 c0 -5 -4 -10 -10 -10 -5 0 -10 5 -10 10 0 6 5 10 10 10 6 0
10 -4 10 -10z m-213 -6 c-3 -3 -12 -4 -19 -1 -8 3 -5 6 6 6 11 1 17 -2 13 -5z
m70 0 c-3 -3 -12 -4 -19 -1 -8 3 -5 6 6 6 11 1 17 -2 13 -5z m240 0 c-3 -3
-12 -4 -19 -1 -8 3 -5 6 6 6 11 1 17 -2 13 -5z m-277 -14 c0 -5 -4 -10 -10
-10 -5 0 -10 5 -10 10 0 6 5 10 10 10 6 0 10 -4 10 -10z m70 6 c0 -2 -7 -7
-16 -10 -8 -3 -12 -2 -9 4 6 10 25 14 25 6z m638 -1228 c3 -416 4 -402 -34
-397 -3 0 -11 -7 -18 -17 -10 -13 -15 -14 -21 -4 -5 9 -4 11 3 6 7 -4 12 -2
12 3 0 16 -148 10 -154 -6 -3 -6 -13 -9 -23 -7 -14 4 -19 -1 -20 -16 -2 -18 1
-19 13 -10 8 8 14 8 14 2 0 -13 -28 -24 -34 -13 -12 18 2 46 23 45 11 0 21 3
21 6 0 4 -36 7 -80 7 -44 0 -80 -4 -80 -8 0 -4 11 -6 25 -5 13 2 22 -1 19 -5
-7 -13 -44 -5 -55 12 -8 14 -11 787 -3 801 3 4 91 6 197 5 l192 -2 3 -397z
m-1056 377 c-2 -5 5 -13 15 -17 16 -7 16 -8 -2 -5 -11 2 -19 9 -17 15 1 7 -7
12 -18 12 -11 0 -19 -5 -17 -11 1 -6 -5 -14 -13 -16 -13 -4 -13 -3 0 6 8 6 11
11 7 11 -5 0 -5 5 -2 11 8 13 51 8 47 -6z m43 5 c-3 -5 -12 -10 -18 -10 -7 0
-6 4 3 10 19 12 23 12 15 0z m61 -26 c3 -16 2 -26 -1 -23 -3 4 -8 19 -11 35
-3 16 -2 26 1 23 3 -4 8 -19 11 -35z m149 28 c-15 -11 -19 -46 -4 -36 8 4 10
3 5 -5 -16 -26 -28 7 -17 47 1 1 7 2 14 2 7 0 8 -3 2 -8z m-65 -12 c0 -5 -5
-10 -11 -10 -5 0 -7 5 -4 10 3 6 8 10 11 10 2 0 4 -4 4 -10z m27 -12 c-3 -8
-6 -5 -6 6 -1 11 2 17 5 13 3 -3 4 -12 1 -19z m-287 2 c0 -5 -4 -10 -10 -10
-5 0 -10 5 -10 10 0 6 5 10 10 10 6 0 10 -4 10 -10z m147 4 c-3 -3 -12 -4 -19
-1 -8 3 -5 6 6 6 11 1 17 -2 13 -5z m70 -10 c-3 -3 -12 -4 -19 -1 -8 3 -5 6 6
6 11 1 17 -2 13 -5z m-157 -14 c0 -5 -4 -10 -10 -10 -5 0 -10 5 -10 10 0 6 5
10 10 10 6 0 10 -4 10 -10z m101 -12 c6 -12 6 -18 -1 -18 -5 0 -10 6 -10 13 0
7 -9 13 -20 14 -11 1 -19 -4 -17 -10 1 -7 -8 -11 -20 -10 -14 2 -22 -2 -20
-10 3 -18 -46 -15 -50 3 -3 9 -1 11 4 5 13 -15 44 -18 41 -3 -2 8 5 12 19 11
13 -2 22 1 22 5 -3 16 2 21 22 19 11 -1 25 -9 30 -19z m112 -5 c-1 -12 5 -19
18 -20 18 -2 19 0 7 15 -12 15 -11 16 4 3 22 -17 14 -32 -15 -27 -15 2 -21 10
-20 23 1 12 -5 19 -16 20 -12 1 -17 -5 -17 -19 1 -20 -27 -33 -45 -22 -11 6 0
34 13 34 6 0 6 -6 -2 -14 -9 -12 -8 -15 10 -13 12 1 20 8 19 17 -2 27 1 30 24
26 15 -2 21 -10 20 -23z m-257 -49 c3 -16 2 -26 -1 -23 -3 4 -8 19 -11 35 -3
16 -2 26 1 23 3 -4 8 -19 11 -35z m124 26 c0 -5 -4 -10 -10 -10 -5 0 -10 5
-10 10 0 6 5 10 10 10 6 0 10 -4 10 -10z m-153 -16 c-3 -3 -12 -4 -19 -1 -8 3
-5 6 6 6 11 1 17 -2 13 -5z m126 -12 c-2 -7 6 -12 17 -12 11 0 19 5 18 12 -2
6 6 13 17 15 18 3 18 2 2 -5 -10 -4 -18 -12 -18 -17 1 -6 -8 -10 -19 -10 -11
0 -20 4 -19 10 0 5 -8 13 -18 17 -16 7 -16 8 2 5 11 -2 19 -9 18 -15z m-56 2
c-3 -3 -12 -4 -19 -1 -8 3 -5 6 6 6 11 1 17 -2 13 -5z m170 0 c-3 -3 -12 -4
-19 -1 -8 3 -5 6 6 6 11 1 17 -2 13 -5z m70 0 c-3 -3 -12 -4 -19 -1 -8 3 -5 6
6 6 11 1 17 -2 13 -5z m-212 -12 c-20 -14 -16 -39 6 -38 21 1 35 -27 23 -45
-6 -11 -34 0 -34 13 0 6 6 6 14 -2 12 -9 15 -8 13 10 -1 15 -7 20 -22 18 -14
-2 -20 3 -21 17 -1 26 4 35 19 35 8 0 8 -3 2 -8z m110 -2 c3 -6 -1 -7 -9 -4
-18 7 -21 14 -7 14 6 0 13 -4 16 -10z m65 0 c0 -5 -4 -10 -10 -10 -5 0 -10 5
-10 10 0 6 5 10 10 10 6 0 10 -4 10 -10z m65 2 c-5 -4 -10 -14 -10 -22 0 -8 5
-19 10 -23 6 -5 4 -7 -5 -5 -8 3 -14 14 -13 26 1 31 2 32 16 32 7 0 8 -3 2 -8z
m-275 -22 c0 -5 -2 -10 -4 -10 -3 0 -8 5 -11 10 -3 6 -1 10 4 10 6 0 11 -4 11
-10z m120 0 c-8 -5 -19 -10 -25 -10 -5 0 -3 5 5 10 8 5 20 10 25 10 6 0 3 -5
-5 -10z m65 -10 c0 -15 -41 -24 -50 -11 -3 5 0 13 6 17 7 4 9 3 5 -4 -4 -7 1
-10 14 -9 21 1 27 12 10 20 -6 3 -5 4 2 3 7 -2 13 -9 13 -16z m55 10 c0 -5 -4
-10 -10 -10 -5 0 -10 5 -10 10 0 6 5 10 10 10 6 0 10 -4 10 -10z m-310 -20 c0
-5 -4 -10 -10 -10 -5 0 -10 5 -10 10 0 6 5 10 10 10 6 0 10 -4 10 -10z m276
-16 c-3 -15 -8 -29 -11 -32 -3 -3 -3 5 -1 19 2 13 5 27 5 32 1 4 3 7 6 7 3 0
3 -12 1 -26z m-119 -6 c-3 -8 -6 -5 -6 6 -1 11 2 17 5 13 3 -3 4 -12 1 -19z
m38 12 c3 -5 1 -10 -4 -10 -6 0 -11 5 -11 10 0 6 2 10 4 10 3 0 8 -4 11 -10z
m-118 -22 c-3 -8 -6 -5 -6 6 -1 11 2 17 5 13 3 -3 4 -12 1 -19z m240 16 c-3
-3 -12 -4 -19 -1 -8 3 -5 6 6 6 11 1 17 -2 13 -5z m-70 -10 c-3 -3 -12 -4 -19
-1 -8 3 -5 6 6 6 11 1 17 -2 13 -5z m-28 -13 c7 -2 -22 -31 -32 -31 -6 0 -2 6
9 14 18 14 18 15 -3 13 -13 -1 -23 -6 -23 -11 0 -5 -3 -7 -6 -3 -16 16 23 29
55 18z m116 -21 c0 -19 -5 -25 -24 -25 -16 0 -25 6 -27 19 -4 27 2 33 28 32
17 -1 23 -7 23 -26z m-225 0 c8 -5 12 -11 10 -14 -3 -2 -14 2 -24 10 -22 15
-10 19 14 4z m55 -21 c6 1 10 -8 10 -19 0 -11 -4 -20 -10 -19 -5 0 -13 -8 -17
-18 -7 -16 -8 -16 -5 2 2 11 9 19 15 18 7 -2 12 6 12 17 0 11 -5 19 -12 18 -6
-2 -13 6 -15 17 -3 18 -2 18 5 2 4 -10 12 -18 17 -18z m75 11 c-6 -11 -15 -18
-21 -15 -5 4 -9 -3 -9 -14 0 -12 5 -20 12 -18 6 1 13 -7 15 -18 3 -18 2 -18
-5 -2 -4 10 -12 18 -17 18 -6 -1 -10 9 -10 22 0 12 5 21 13 20 6 -2 12 4 12
12 0 8 5 15 10 15 7 0 7 -7 0 -20z m-100 -30 c0 -5 -4 -10 -10 -10 -5 0 -10 5
-10 10 0 6 5 10 10 10 6 0 10 -4 10 -10z m120 0 c0 -5 -4 -10 -10 -10 -5 0
-10 5 -10 10 0 6 5 10 10 10 6 0 10 -4 10 -10z m67 -6 c-3 -3 -12 -4 -19 -1
-8 3 -5 6 6 6 11 1 17 -2 13 -5z m-327 -14 c0 -5 -4 -10 -10 -10 -5 0 -10 5
-10 10 0 6 5 10 10 10 6 0 10 -4 10 -10z m80 0 c0 -5 -4 -10 -10 -10 -5 0 -10
5 -10 10 0 6 5 10 10 10 6 0 10 -4 10 -10z m215 -21 c0 -18 -5 -24 -22 -23
-15 1 -21 -4 -20 -17 1 -21 12 -25 20 -9 3 6 4 5 3 -2 -5 -24 -31 -14 -31 12
0 19 5 25 22 24 15 -1 21 4 20 17 -1 20 -17 27 -17 7 0 -6 -3 -9 -6 -5 -9 9 6
29 19 24 7 -2 12 -14 12 -28z m-175 11 c0 -5 -7 -10 -15 -10 -8 0 -14 -6 -12
-12 3 -19 -46 -16 -50 2 -3 9 -1 11 4 5 11 -13 47 -19 39 -6 -4 5 2 14 11 20
23 13 23 13 23 1z m210 -4 c0 -3 -4 -8 -10 -11 -5 -3 -10 -1 -10 4 0 6 5 11
10 11 6 0 10 -2 10 -4z m-140 -21 c8 0 19 5 23 10 5 6 7 4 5 -5 -3 -8 -15 -14
-28 -14 -13 0 -25 6 -28 14 -2 9 0 11 5 5 4 -5 15 -10 23 -10z m-54 -28 c-2
-16 -10 -22 -29 -22 -14 -1 -23 3 -20 7 2 5 12 6 22 3 12 -3 17 1 18 16 2 18
0 19 -15 7 -15 -12 -16 -11 -3 4 17 22 32 14 27 -15z m210 21 c5 -7 3 -8 -5
-4 -15 10 -11 -25 4 -37 6 -5 4 -7 -4 -5 -15 4 -24 35 -15 50 7 11 12 10 20
-4z m-189 -30 c-3 -8 -6 -5 -6 6 -1 11 2 17 5 13 3 -3 4 -12 1 -19z m70 0 c-3
-8 -6 -5 -6 6 -1 11 2 17 5 13 3 -3 4 -12 1 -19z m80 0 c-3 -8 -6 -5 -6 6 -1
11 2 17 5 13 3 -3 4 -12 1 -19z m-300 6 c-3 -3 -12 -4 -19 -1 -8 3 -5 6 6 6
11 1 17 -2 13 -5z m70 0 c-3 -3 -12 -4 -19 -1 -8 3 -5 6 6 6 11 1 17 -2 13 -5z
m123 -4 c0 -5 -4 -10 -10 -10 -5 0 -10 5 -10 10 0 6 5 10 10 10 6 0 10 -4 10
-10z m-160 -10 c0 -5 -4 -10 -10 -10 -5 0 -10 5 -10 10 0 6 5 10 10 10 6 0 10
-4 10 -10z m293 -19 c16 -1 17 -18 17 -201 l0 -200 -200 0 c-140 0 -200 3
-200 11 0 6 -8 8 -17 5 -16 -5 -16 -5 -2 6 13 11 15 39 15 160 0 104 -3 149
-12 152 -13 5 -14 48 -1 44 5 -2 12 4 17 12 7 13 37 15 187 14 98 -1 186 -2
196 -3z m-555 -13 c-5 -14 -45 -21 -52 -9 -3 4 6 7 19 5 14 -1 25 2 25 7 0 5
3 9 6 9 3 0 4 -5 2 -12z m-98 -8 c0 -5 -4 -10 -10 -10 -5 0 -10 5 -10 10 0 6
5 10 10 10 6 0 10 -4 10 -10z m116 -16 c-3 -15 -8 -29 -11 -32 -3 -3 -3 5 -1
19 2 13 5 27 5 32 1 4 3 7 6 7 3 0 3 -12 1 -26z m-176 -4 c0 -5 -4 -10 -10
-10 -5 0 -10 5 -10 10 0 6 5 10 10 10 6 0 10 -4 10 -10z m33 -9 c-2 -6 6 -11
17 -11 11 0 19 5 18 12 -2 6 6 13 17 15 18 3 18 2 2 -5 -10 -4 -18 -12 -18
-17 1 -6 -8 -10 -19 -10 -11 0 -20 4 -19 9 0 5 -5 13 -13 18 -10 8 -10 9 2 5
8 -2 14 -10 13 -16z m184 13 c-3 -3 -12 -4 -19 -1 -8 3 -5 6 6 6 11 1 17 -2
13 -5z m70 -16 c-3 -8 -6 -5 -6 6 -1 11 2 17 5 13 3 -3 4 -12 1 -19z m-140 6
c-3 -3 -12 -4 -19 -1 -8 3 -5 6 6 6 11 1 17 -2 13 -5z m113 -4 c0 -5 -2 -10
-4 -10 -3 0 -8 5 -11 10 -3 6 -1 10 4 10 6 0 11 -4 11 -10z m-146 -30 c0 -13
-6 -25 -14 -28 -9 -2 -11 0 -5 5 6 4 10 15 10 23 0 8 -4 19 -10 23 -6 5 -4 7
5 5 8 -3 14 -15 14 -28z m-94 -1 c0 -6 -4 -7 -10 -4 -5 3 -10 11 -10 16 0 6 5
7 10 4 6 -3 10 -11 10 -16z m130 1 c0 -5 -4 -10 -10 -10 -5 0 -10 5 -10 10 0
6 5 10 10 10 6 0 10 -4 10 -10z m169 -5 c3 -3 -7 -4 -23 -1 -16 3 -31 8 -35
11 -3 3 7 4 23 1 16 -3 31 -8 35 -11z m-368 -18 c-10 -9 -11 -8 -5 6 3 10 9
15 12 12 3 -3 0 -11 -7 -18z m325 -19 c-1 -13 -7 -22 -14 -20 -7 1 -12 -7 -12
-18 0 -11 5 -19 12 -17 20 4 17 -43 -3 -54 -13 -6 -19 -6 -19 1 0 5 6 10 13
10 7 0 13 9 14 20 1 11 -4 19 -10 17 -7 -1 -12 9 -12 23 0 14 5 24 12 23 6 -2
11 6 10 17 -1 11 -7 20 -14 20 -7 0 -13 5 -13 10 0 7 6 7 19 1 10 -6 18 -20
17 -33z m-270 20 c5 -7 3 -8 -5 -4 -8 6 -11 2 -9 -10 2 -11 11 -24 22 -30 17
-10 17 -12 2 -17 -10 -4 -15 -3 -12 2 3 5 0 11 -8 14 -14 6 -16 57 -2 57 3 0
8 -5 12 -12z m66 -3 c-2 -5 5 -13 15 -17 16 -7 16 -8 -2 -5 -11 2 -19 9 -17
15 1 7 -7 12 -18 12 -11 0 -19 -5 -17 -11 1 -6 -5 -14 -13 -16 -13 -4 -13 -3
0 6 8 6 11 11 7 11 -5 0 -5 5 -2 11 8 13 51 8 47 -6z m225 -17 c-3 -8 -6 -5
-6 6 -1 11 2 17 5 13 3 -3 4 -12 1 -19z m-330 -10 c-3 -8 -6 -5 -6 6 -1 11 2
17 5 13 3 -3 4 -12 1 -19z m180 16 c-3 -3 -12 -4 -19 -1 -8 3 -5 6 6 6 11 1
17 -2 13 -5z m93 -4 c0 -5 -4 -10 -10 -10 -5 0 -10 5 -10 10 0 6 5 10 10 10 6
0 10 -4 10 -10z m-180 -20 c0 -5 -4 -10 -10 -10 -5 0 -10 5 -10 10 0 6 5 10
10 10 6 0 10 -4 10 -10z m95 -10 c0 -7 -6 -14 -13 -16 -7 -1 -8 0 -2 3 16 8
12 19 -9 20 -13 1 -18 -5 -17 -20 1 -17 -5 -22 -24 -22 -26 0 -36 26 -12 31 7
1 8 0 2 -3 -16 -8 -12 -19 9 -20 13 -1 18 4 16 15 -1 9 -1 20 2 24 7 13 48 2
48 -12z m160 -9 c0 -16 -3 -27 -7 -24 -13 7 -7 53 6 53 1 0 1 -13 1 -29z
m-144 -18 c-12 -20 -14 -14 -5 12 4 9 9 14 11 11 3 -2 0 -13 -6 -23z m-114
-35 c-3 -8 -6 -5 -6 6 -1 11 2 17 5 13 3 -3 4 -12 1 -19z m90 16 c-3 -3 -12
-4 -19 -1 -8 3 -5 6 6 6 11 1 17 -2 13 -5z m93 -4 c0 -5 -4 -10 -10 -10 -5 0
-10 5 -10 10 0 6 5 10 10 10 6 0 10 -4 10 -10z m57 -12 c-3 -8 -6 -5 -6 6 -1
11 2 17 5 13 3 -3 4 -12 1 -19z m-197 8 c0 -3 -4 -8 -10 -11 -5 -3 -10 -1 -10
4 0 6 5 11 10 11 6 0 10 -2 10 -4z m-120 -16 c0 -5 -4 -10 -10 -10 -5 0 -10 5
-10 10 0 6 5 10 10 10 6 0 10 -4 10 -10z m178 -8 c2 -7 8 -10 13 -6 5 3 9 0 9
-5 0 -15 -20 -14 -26 2 -2 7 -13 13 -24 14 -16 1 -18 -1 -8 -17 7 -10 17 -18
22 -17 6 1 11 -8 11 -20 0 -13 -4 -23 -9 -22 -5 0 -13 -5 -18 -13 -8 -10 -9
-10 -5 2 2 8 10 14 16 13 6 -2 11 6 11 18 0 11 -4 18 -9 15 -10 -7 -43 39 -34
48 9 9 47 0 51 -12z m-81 -8 c-2 -3 -17 -7 -33 -10 -17 -2 -24 -1 -17 4 13 8
58 14 50 6z m243 -4 c0 -5 -4 -10 -10 -10 -5 0 -10 5 -10 10 0 6 5 10 10 10 6
0 10 -4 10 -10z m-220 -10 c0 -5 -6 -10 -13 -10 -7 0 -13 -9 -14 -20 -1 -11 2
-18 8 -15 5 4 14 -4 20 -17 6 -13 19 -25 30 -25 12 -1 17 3 13 9 -4 7 -2 8 5
4 6 -4 9 -12 6 -17 -8 -12 -48 -5 -53 9 -2 7 -8 10 -13 7 -5 -4 -6 1 -3 10 4
10 2 15 -7 13 -19 -4 -19 41 0 52 20 12 21 12 21 0z m175 -28 c0 -12 -4 -22
-10 -21 -5 0 -13 -8 -17 -18 -7 -16 -8 -16 -5 2 2 11 9 19 16 17 14 -3 11 29
-4 41 -6 5 -4 7 5 4 8 -2 15 -13 15 -25z m-255 8 c0 -5 -5 -10 -11 -10 -5 0
-7 5 -4 10 3 6 8 10 11 10 2 0 4 -4 4 -10z m27 -12 c-3 -8 -6 -5 -6 6 -1 11 2
17 5 13 3 -3 4 -12 1 -19z m250 0 c-3 -8 -6 -5 -6 6 -1 11 2 17 5 13 3 -3 4
-12 1 -19z m-177 2 c0 -5 -4 -10 -10 -10 -5 0 -10 5 -10 10 0 6 5 10 10 10 6
0 10 -4 10 -10z m120 0 c0 -5 -4 -10 -10 -10 -5 0 -10 5 -10 10 0 6 5 10 10
10 6 0 10 -4 10 -10z m-263 -6 c-3 -3 -12 -4 -19 -1 -8 3 -5 6 6 6 11 1 17 -2
13 -5z m337 -31 c-1 -22 -6 -28 -24 -28 -13 0 -25 7 -27 15 -3 9 -1 11 4 5 12
-14 47 -19 38 -5 -6 10 0 40 8 40 1 0 2 -12 1 -27z m-338 -5 c4 -7 4 -10 -1
-6 -4 4 -14 0 -21 -10 -12 -15 -12 -15 -7 6 6 24 18 29 29 10z m204 -3 c0 -8
-2 -15 -4 -15 -2 0 -6 7 -10 15 -3 8 -1 15 4 15 6 0 10 -7 10 -15z m-165 -14
c-3 -6 -11 -9 -16 -5 -13 8 -7 -28 6 -39 6 -5 4 -7 -5 -4 -18 4 -21 53 -2 50
6 -2 12 2 12 9 0 6 3 9 6 5 3 -3 3 -11 -1 -16z m-48 -33 c-3 -8 -6 -5 -6 6 -1
11 2 17 5 13 3 -3 4 -12 1 -19z m73 12 c0 -5 -4 -10 -10 -10 -5 0 -10 5 -10
10 0 6 5 10 10 10 6 0 10 -4 10 -10z m160 0 c0 -5 -4 -10 -10 -10 -5 0 -10 5
-10 10 0 6 5 10 10 10 6 0 10 -4 10 -10z m-63 -6 c-3 -3 -12 -4 -19 -1 -8 3
-5 6 6 6 11 1 17 -2 13 -5z m160 0 c-3 -3 -12 -4 -19 -1 -8 3 -5 6 6 6 11 1
17 -2 13 -5z m-127 -8 c0 -2 -7 -7 -16 -10 -8 -3 -12 -2 -9 4 6 10 25 14 25 6z
m1224 -77 c-3 -5 4 -9 15 -9 12 0 20 6 19 13 -2 6 3 12 11 12 8 0 15 -6 17
-13 1 -7 0 -8 -3 -2 -7 14 -23 12 -20 -2 1 -8 -8 -13 -23 -13 -14 0 -24 5 -23
11 1 5 -7 16 -18 22 -17 11 -20 10 -17 -5 2 -10 10 -24 18 -30 13 -12 13 -14
0 -25 -8 -7 -16 -21 -18 -31 -3 -15 0 -16 17 -5 11 6 19 17 18 22 -1 6 9 11
23 11 15 0 24 -5 23 -12 -3 -15 13 -17 20 -3 3 6 4 5 3 -2 -2 -7 -9 -13 -17
-13 -8 0 -13 6 -11 13 1 6 -7 12 -19 12 -11 0 -18 -4 -15 -9 3 -5 -5 -16 -19
-25 -13 -9 -26 -12 -29 -8 -8 14 0 43 15 53 12 8 12 10 0 18 -15 10 -23 39
-15 53 3 4 16 1 29 -8 14 -9 22 -20 19 -25z m26 31 c0 -5 -4 -10 -10 -10 -5 0
-10 5 -10 10 0 6 5 10 10 10 6 0 10 -4 10 -10z m106 -2 c5 -7 3 -8 -5 -4 -15
10 -11 -25 4 -37 6 -5 4 -7 -4 -5 -15 4 -24 35 -15 50 7 11 12 10 20 -4z
m-306 -8 c0 -5 -5 -10 -11 -10 -5 0 -7 5 -4 10 3 6 8 10 11 10 2 0 4 -4 4 -10z
m27 -12 c-3 -8 -6 -5 -6 6 -1 11 2 17 5 13 3 -3 4 -12 1 -19z m80 -10 c-3 -8
-6 -5 -6 6 -1 11 2 17 5 13 3 -3 4 -12 1 -19z m160 0 c-3 -8 -6 -5 -6 6 -1 11
2 17 5 13 3 -3 4 -12 1 -19z m-310 6 c-3 -3 -12 -4 -19 -1 -8 3 -5 6 6 6 11 1
17 -2 13 -5z m58 -24 c0 -7 -6 -14 -13 -16 -7 -1 -8 0 -2 3 16 8 12 19 -9 20
-13 1 -18 -5 -17 -20 1 -17 -5 -22 -24 -22 -26 0 -36 26 -12 31 7 1 8 0 2 -3
-16 -8 -12 -19 9 -20 13 -1 18 4 16 15 -1 9 -1 20 2 24 7 13 48 2 48 -12z m85
-10 c0 -5 -4 -10 -10 -10 -5 0 -10 5 -10 10 0 6 5 10 10 10 6 0 10 -4 10 -10z
m160 0 c0 -5 -4 -10 -10 -10 -5 0 -10 5 -10 10 0 6 5 10 10 10 6 0 10 -4 10
-10z m-220 -20 c0 -5 -4 -10 -10 -10 -5 0 -10 5 -10 10 0 6 5 10 10 10 6 0 10
-4 10 -10z m265 2 c-15 -11 -19 -46 -4 -36 8 4 10 3 5 -5 -16 -26 -28 7 -17
47 1 1 7 2 14 2 7 0 8 -3 2 -8z m-225 -12 c0 -5 -7 -10 -15 -10 -8 0 -14 -6
-12 -12 1 -8 -8 -13 -20 -13 -13 0 -23 4 -22 10 0 5 -8 13 -18 17 -16 7 -16 8
2 5 11 -2 19 -9 18 -15 -2 -7 6 -12 18 -12 11 0 18 4 14 9 -3 6 3 14 12 20 23
13 23 13 23 1z m27 -12 c-3 -8 -6 -5 -6 6 -1 11 2 17 5 13 3 -3 4 -12 1 -19z
m160 0 c-3 -8 -6 -5 -6 6 -1 11 2 17 5 13 3 -3 4 -12 1 -19z m-310 -4 c-3 -3
-12 -4 -19 -1 -8 3 -5 6 6 6 11 1 17 -2 13 -5z m28 -12 c-5 -4 -10 -14 -10
-22 0 -8 5 -19 10 -23 6 -5 4 -7 -5 -5 -8 3 -14 14 -13 26 1 31 2 32 16 32 7
0 8 -3 2 -8z m111 -24 c-1 -12 -9 -24 -17 -26 -8 -2 -10 0 -4 5 6 4 11 17 13
28 3 20 2 20 -13 1 -8 -11 -15 -15 -15 -10 0 15 22 34 31 28 5 -3 7 -15 5 -26z
m104 22 c0 -5 -4 -10 -10 -10 -5 0 -10 5 -10 10 0 6 5 10 10 10 6 0 10 -4 10
-10z m57 -21 c-2 -12 -10 -25 -18 -30 -8 -5 -9 -9 -4 -9 6 0 3 -6 -5 -13 -8
-7 -16 -20 -18 -30 -3 -15 0 -16 17 -5 11 6 19 17 18 22 -4 19 43 14 54 -5 6
-13 6 -19 -1 -19 -5 0 -10 6 -10 13 0 7 -9 13 -20 14 -11 1 -18 -2 -15 -7 3
-4 -6 -15 -20 -24 -13 -9 -26 -12 -29 -8 -8 14 0 43 15 53 8 5 10 9 4 9 -5 0
-3 6 5 13 8 7 16 20 18 30 3 15 0 16 -17 5 -11 -6 -19 -17 -18 -22 4 -19 -43
-14 -54 5 -6 13 -6 19 1 19 5 0 10 -6 10 -13 0 -7 9 -13 20 -14 11 -1 19 2 17
7 -3 11 35 40 45 34 4 -3 6 -14 5 -25z m-307 1 c0 -5 -4 -10 -10 -10 -5 0 -10
5 -10 10 0 6 5 10 10 10 6 0 10 -4 10 -10z m175 0 c3 -5 1 -10 -4 -10 -6 0
-11 5 -11 10 0 6 2 10 4 10 3 0 8 -4 11 -10z m160 0 c3 -5 1 -10 -4 -10 -6 0
-11 5 -11 10 0 6 2 10 4 10 3 0 8 -4 11 -10z m-233 -25 c-2 -5 5 -13 15 -17
16 -7 16 -8 -2 -5 -11 2 -19 9 -17 15 1 7 -7 12 -18 12 -11 0 -19 -5 -17 -12
1 -6 -7 -13 -18 -15 l-20 -3 20 9 c11 5 16 10 12 10 -5 1 -5 6 -2 12 8 13 51
8 47 -6z m104 -21 c3 -16 2 -26 -1 -23 -3 4 -8 19 -11 35 -3 16 -2 26 1 23 3
-4 8 -19 11 -35z m-199 10 c-3 -3 -12 -4 -19 -1 -8 3 -5 6 6 6 11 1 17 -2 13
-5z m170 0 c-3 -3 -12 -4 -19 -1 -8 3 -5 6 6 6 11 1 17 -2 13 -5z m160 0 c-3
-3 -12 -4 -19 -1 -8 3 -5 6 6 6 11 1 17 -2 13 -5z m-90 -10 c-3 -3 -12 -4 -19
-1 -8 3 -5 6 6 6 11 1 17 -2 13 -5z m-225 -29 c-2 -15 4 -21 18 -22 18 -2 19
1 10 13 -8 8 -8 14 -2 14 13 0 24 -28 13 -34 -18 -11 -46 2 -45 22 0 14 -5 20
-18 19 -10 -1 -18 -6 -18 -11 0 -5 -3 -7 -6 -3 -11 11 5 24 28 23 17 -1 22 -6
20 -21z m68 15 c0 -5 -4 -10 -10 -10 -5 0 -10 5 -10 10 0 6 5 10 10 10 6 0 10
-4 10 -10z m105 -21 c8 -13 17 -23 22 -21 17 5 10 -39 -8 -49 -13 -6 -19 -6
-19 1 0 5 6 10 13 10 7 0 13 9 14 20 1 11 -2 18 -8 15 -5 -4 -14 4 -20 17 -6
13 -19 25 -30 25 -12 1 -17 -3 -13 -9 4 -7 2 -8 -5 -4 -17 11 -3 26 21 23 11
-2 26 -14 33 -28z m-71 3 c2 -4 0 -14 -6 -22 -8 -12 -9 -11 -4 3 5 15 2 17
-17 12 -17 -5 -19 -4 -7 4 18 13 27 14 34 3z m116 -2 c0 -5 -2 -10 -4 -10 -3
0 -8 5 -11 10 -3 6 -1 10 4 10 6 0 11 -4 11 -10z m-75 -19 c-3 -6 -11 -9 -16
-6 -5 4 -9 -3 -9 -14 0 -12 6 -20 13 -18 7 1 12 -8 12 -23 0 -15 -5 -24 -12
-22 -7 1 -13 -7 -13 -19 0 -11 4 -18 9 -14 6 3 15 -3 20 -12 11 -17 11 -17 22
0 5 9 15 15 20 11 13 -8 7 28 -6 39 -6 5 -4 7 5 4 18 -4 21 -53 3 -49 -7 1
-13 -2 -13 -8 0 -13 48 -8 54 6 6 14 45 11 55 -5 5 -7 11 -12 15 -12 36 5 36
7 36 -199 0 -183 -1 -200 -17 -201 -10 -1 -99 -2 -198 -3 -163 -1 -180 -3
-183 -18 -2 -10 1 -18 7 -18 6 0 10 6 9 13 -2 7 7 12 20 12 12 0 22 -4 21 -10
0 -5 8 -13 18 -17 16 -7 16 -8 -2 -5 -11 2 -19 9 -17 15 1 7 -7 12 -19 12 -11
0 -17 -5 -14 -10 3 -6 0 -13 -8 -16 -13 -4 -15 -35 -14 -178 l1 -172 48 -1
c26 0 48 3 48 7 0 5 -11 7 -25 6 -13 -2 -22 1 -19 5 6 11 43 6 52 -7 10 -13
52 -17 52 -5 0 6 -5 10 -12 8 -20 -4 -17 43 3 54 13 6 19 6 19 -1 0 -5 -6 -10
-13 -10 -7 0 -13 -9 -14 -20 -1 -11 2 -18 7 -15 5 3 14 -3 19 -12 11 -17 11
-17 22 0 5 9 14 15 20 12 5 -4 9 3 9 14 0 12 -5 20 -12 18 -6 -1 -13 7 -15 18
-3 18 -2 18 5 2 4 -10 12 -18 17 -18 6 1 10 -9 10 -21 0 -13 -5 -22 -12 -21
-7 2 -13 -1 -13 -6 0 -4 18 -8 40 -8 22 0 40 4 40 8 0 5 -6 8 -12 6 -8 -1 -13
8 -13 21 0 12 4 22 10 21 5 0 13 8 17 18 7 16 8 16 5 -2 -2 -11 -9 -19 -15
-18 -7 2 -12 -6 -12 -18 0 -11 4 -18 9 -14 6 3 14 -3 20 -12 9 -16 12 -16 21
-3 5 8 10 10 10 4 0 -6 14 -11 30 -12 17 0 30 3 30 8 0 4 -11 7 -25 6 -13 -2
-22 1 -19 5 8 13 44 5 55 -12 5 -8 9 -274 9 -611 l0 -598 -200 0 c-127 0 -200
4 -200 10 0 6 -5 9 -12 8 -16 -4 -19 42 -4 48 14 6 20 54 6 54 -6 0 -9 -6 -8
-12 2 -8 -7 -13 -22 -13 -14 0 -24 5 -23 11 1 5 -7 16 -18 22 -17 11 -20 10
-17 -5 2 -10 14 -26 28 -35 14 -10 21 -18 15 -18 -17 1 -49 29 -51 47 -4 28 6
34 31 17 14 -9 22 -20 19 -25 -3 -5 4 -9 16 -9 12 0 19 4 15 9 -3 6 3 15 12
20 17 11 17 11 0 22 -9 5 -15 14 -12 19 3 5 -4 8 -15 7 -11 -1 -20 -7 -20 -14
0 -7 -5 -13 -10 -13 -7 0 -7 6 -1 19 11 20 58 23 53 3 -1 -7 2 -12 8 -12 13 0
8 48 -6 54 -13 5 -12 45 2 54 13 10 17 52 5 52 -6 0 -10 -6 -9 -12 4 -19 -45
-16 -49 2 -3 9 -1 11 4 5 11 -13 47 -19 39 -6 -4 5 2 14 11 20 17 9 17 11 -2
25 -11 8 -15 16 -10 17 6 0 -1 5 -15 10 l-25 8 25 -2 c14 -1 24 -8 22 -15 -1
-6 3 -12 9 -12 6 0 9 8 7 18 -3 15 -16 17 -103 18 -57 0 -103 -4 -107 -9 -8
-14 -45 -19 -52 -8 -3 4 6 7 19 5 14 -1 25 1 25 5 0 4 -45 8 -100 8 -55 0
-100 -4 -100 -8 0 -4 11 -6 25 -5 13 2 22 -1 19 -5 -8 -13 -44 -5 -55 12 -5 8
-9 10 -9 6 0 -5 -6 -5 -12 0 -18 11 -32 10 -40 -2 -5 -6 -11 -6 -19 2 -6 6
-21 9 -33 5 -11 -4 -58 -7 -103 -6 -55 0 -84 -4 -87 -12 -6 -16 -51 -12 -51 4
0 11 -41 13 -207 12 l-208 -1 0 201 0 200 408 -1 c224 -1 414 0 422 2 8 2 20
10 26 18 9 11 12 12 19 1 5 -9 4 -11 -3 -6 -7 4 -12 2 -12 -4 0 -17 142 -9
156 9 9 11 12 12 19 1 5 -9 4 -11 -3 -6 -7 4 -12 2 -12 -4 0 -17 142 -9 158
10 10 13 11 13 6 -2 -3 -10 -2 -18 3 -18 12 0 12 84 0 92 -14 8 -19 45 -8 52
4 3 7 -6 5 -19 -1 -14 1 -25 5 -25 4 0 8 45 8 100 0 55 -4 100 -8 100 -4 0 -6
-11 -5 -25 2 -13 -1 -22 -5 -19 -11 6 -6 43 7 52 13 10 17 52 5 52 -6 0 -10
-6 -8 -12 1 -8 -8 -13 -23 -13 -16 0 -24 5 -22 14 2 10 -4 12 -25 7 -23 -5
-25 -4 -10 5 21 12 51 4 42 -11 -3 -5 3 -10 15 -10 12 0 19 4 15 9 -3 6 3 14
12 20 10 5 14 13 10 18 -11 10 -137 13 -137 3 0 -5 11 -7 25 -6 13 2 22 -1 19
-5 -6 -11 -43 -6 -52 7 -10 13 -52 17 -52 5 0 -6 6 -10 13 -8 7 1 12 -8 12
-23 0 -15 -5 -24 -12 -23 -7 2 -13 -6 -13 -17 0 -11 6 -19 13 -17 7 1 12 -8
12 -20 0 -13 -4 -23 -9 -22 -5 0 -13 -5 -18 -13 -8 -10 -9 -10 -5 2 2 8 10 14
16 13 6 -2 11 6 11 17 0 11 -6 19 -12 17 -8 -1 -13 8 -13 23 0 15 5 24 13 23
6 -2 12 6 12 18 0 11 -4 18 -9 14 -6 -3 -15 3 -20 12 -11 17 -11 17 -22 0 -5
-9 -15 -15 -20 -11 -13 8 -7 -28 6 -39 6 -5 4 -7 -5 -4 -18 4 -21 53 -2 50 6
-2 12 1 12 7 0 13 -48 8 -54 -6 -6 -14 -45 -11 -55 5 -5 7 -11 12 -15 12 -3
-1 -103 -1 -221 -1 l-215 0 0 200 0 200 400 0 400 0 0 200 c0 127 4 200 10
200 6 0 10 5 10 11 0 5 -5 7 -12 3 -7 -5 -8 -3 -3 6 7 11 10 10 19 -1 13 -17
56 -24 56 -10 0 6 -5 10 -12 9 -20 -5 -17 42 3 53 13 6 19 6 19 -1 0 -5 -6
-10 -13 -10 -7 0 -13 -9 -14 -20 -1 -11 2 -18 7 -15 5 3 14 -3 19 -12 11 -17
11 -17 22 0 5 9 14 15 20 12 5 -4 9 3 9 15 0 12 -4 19 -9 16 -5 -3 -16 5 -25
19 -9 14 -15 26 -14 26 17 8 51 3 55 -7 3 -8 9 -11 14 -8 5 3 9 0 9 -5 0 -15
-20 -14 -26 2 -2 7 -13 13 -24 14 -16 1 -18 -1 -8 -17 7 -10 17 -18 22 -17 6
1 11 -9 11 -23 0 -15 -5 -24 -12 -22 -7 1 -13 -2 -13 -7 0 -4 18 -8 40 -8 22
0 40 4 40 8 0 5 -6 8 -12 7 -8 -2 -13 7 -13 22 0 15 5 24 13 23 6 -2 12 6 12
17 0 11 -6 19 -12 18 -8 -2 -13 7 -13 22 0 15 5 24 13 23 6 -2 12 2 12 9 0 6
3 9 6 5 3 -3 3 -11 -1 -16z m-179 -23 c-1 -12 -9 -24 -17 -26 -8 -2 -10 0 -4
5 15 12 19 47 4 37 -8 -4 -10 -3 -5 5 11 17 26 3 22 -21z m344 22 c0 -5 -4
-10 -10 -10 -5 0 -10 5 -10 10 0 6 5 10 10 10 6 0 10 -4 10 -10z m-323 -32
c-3 -8 -6 -5 -6 6 -1 11 2 17 5 13 3 -3 4 -12 1 -19z m90 16 c-3 -3 -12 -4
-19 -1 -8 3 -5 6 6 6 11 1 17 -2 13 -5z m93 -4 c0 -5 -4 -10 -10 -10 -5 0 -10
5 -10 10 0 6 5 10 10 10 6 0 10 -4 10 -10z m57 -12 c-3 -8 -6 -5 -6 6 -1 11 2
17 5 13 3 -3 4 -12 1 -19z m56 3 c-2 -6 6 -11 17 -11 11 0 19 5 18 11 -2 6 4
14 12 16 12 4 12 3 2 -5 -8 -5 -13 -13 -13 -18 1 -5 -9 -9 -21 -9 -13 0 -22 5
-20 13 1 6 -2 12 -8 12 -5 0 -10 -5 -10 -12 0 -6 -3 -9 -6 -5 -3 3 -3 11 1 17
8 14 31 7 28 -9z m-253 5 c0 -3 -4 -8 -10 -11 -5 -3 -10 -1 -10 4 0 6 5 11 10
11 6 0 10 -2 10 -4z m-23 -32 c-2 -3 -17 -7 -33 -10 -17 -2 -24 -1 -17 4 13 8
58 14 50 6z m243 -4 c0 -5 -4 -10 -10 -10 -5 0 -10 5 -10 10 0 6 5 10 10 10 6
0 10 -4 10 -10z m35 -8 c-3 -3 -11 0 -18 7 -9 10 -8 11 6 5 10 -3 15 -9 12
-12z m50 -10 c-15 -11 -19 -46 -4 -36 8 4 10 3 5 -5 -16 -26 -28 7 -17 47 1 1
7 2 14 2 7 0 8 -3 2 -8z m-358 -24 c-3 -8 -6 -5 -6 6 -1 11 2 17 5 13 3 -3 4
-12 1 -19z m250 0 c-3 -8 -6 -5 -6 6 -1 11 2 17 5 13 3 -3 4 -12 1 -19z m43
12 c0 -5 -4 -10 -10 -10 -5 0 -10 5 -10 10 0 6 5 10 10 10 6 0 10 -4 10 -10z
m27 -12 c-3 -8 -6 -5 -6 6 -1 11 2 17 5 13 3 -3 4 -12 1 -19z m-247 2 c0 -5
-4 -10 -10 -10 -5 0 -10 5 -10 10 0 6 5 10 10 10 6 0 10 -4 10 -10z m120 0 c0
-5 -4 -10 -10 -10 -5 0 -10 5 -10 10 0 6 5 10 10 10 6 0 10 -4 10 -10z m-1435
-458 c-15 -11 -19 -46 -4 -36 8 4 10 3 5 -5 -16 -26 -28 7 -17 47 1 1 7 2 14
2 7 0 8 -3 2 -8z m1310 -2 c-3 -5 -12 -10 -18 -10 -7 0 -6 4 3 10 19 12 23 12
15 0z m65 0 c0 -5 -4 -10 -10 -10 -5 0 -10 5 -10 10 0 6 5 10 10 10 6 0 10 -4
10 -10z m65 -8 c-3 -3 -11 0 -18 7 -9 10 -8 11 6 5 10 -3 15 -9 12 -12z m68 0
c-4 -15 13 -16 20 -2 3 6 4 5 3 -2 -2 -7 -9 -13 -17 -13 -8 0 -13 6 -11 13 1
6 -7 12 -18 12 -11 0 -19 -5 -17 -12 1 -6 -7 -13 -18 -15 l-20 -3 20 9 c11 5
16 10 12 10 -5 1 -5 6 -2 12 9 14 51 7 48 -9z m92 10 c-15 -11 -19 -46 -4 -36
8 4 10 3 5 -5 -16 -26 -28 7 -17 47 1 1 7 2 14 2 7 0 8 -3 2 -8z m-1948 -24
c-3 -8 -6 -5 -6 6 -1 11 2 17 5 13 3 -3 4 -12 1 -19z m38 12 c3 -5 1 -10 -4
-10 -6 0 -11 5 -11 10 0 6 2 10 4 10 3 0 8 -4 11 -10z m202 -12 c-3 -8 -6 -5
-6 6 -1 11 2 17 5 13 3 -3 4 -12 1 -19z m43 12 c0 -5 -4 -10 -10 -10 -5 0 -10
5 -10 10 0 6 5 10 10 10 6 0 10 -4 10 -10z m27 -12 c-3 -8 -6 -5 -6 6 -1 11 2
17 5 13 3 -3 4 -12 1 -19z m1600 0 c-3 -8 -6 -5 -6 6 -1 11 2 17 5 13 3 -3 4
-12 1 -19z m-1727 2 c0 -5 -4 -10 -10 -10 -5 0 -10 5 -10 10 0 6 5 10 10 10 6
0 10 -4 10 -10z m1507 4 c-3 -3 -12 -4 -19 -1 -8 3 -5 6 6 6 11 1 17 -2 13 -5z
m70 0 c-3 -3 -12 -4 -19 -1 -8 3 -5 6 6 6 11 1 17 -2 13 -5z m-1670 -10 c-3
-3 -12 -4 -19 -1 -8 3 -5 6 6 6 11 1 17 -2 13 -5z m-35 -29 c-2 -15 4 -21 18
-22 18 -2 19 1 10 13 -8 8 -8 14 -2 14 13 0 24 -28 13 -34 -18 -11 -46 2 -45
22 0 14 -5 20 -18 19 -10 -1 -18 -7 -18 -14 0 -7 -5 -13 -10 -13 -7 0 -7 6 -1
19 14 26 57 23 53 -4z m72 -15 c-6 -5 -24 21 -24 34 0 6 6 1 14 -10 8 -10 12
-21 10 -24z m169 14 c-1 -13 5 -20 18 -21 18 -2 19 0 7 15 -12 15 -11 16 4 3
22 -17 14 -32 -15 -27 -15 2 -21 10 -20 23 1 12 -4 19 -17 19 -13 0 -18 -7
-17 -19 1 -13 -5 -21 -20 -23 -29 -5 -37 10 -15 27 15 13 16 12 4 -3 -12 -15
-11 -17 7 -15 14 1 20 6 16 15 -8 20 1 29 27 27 16 -2 22 -8 21 -21z m1307 16
c0 -5 -4 -10 -10 -10 -5 0 -10 5 -10 10 0 6 5 10 10 10 6 0 10 -4 10 -10z m93
-17 c-1 -12 5 -19 16 -20 12 -1 17 5 17 19 -1 20 27 33 45 22 11 -6 0 -34 -13
-34 -6 0 -6 6 2 14 9 12 8 15 -10 13 -15 -1 -20 -7 -18 -22 2 -16 -3 -20 -22
-20 -19 1 -25 6 -23 21 1 13 -4 20 -18 21 -18 2 -19 0 -7 -15 12 -15 11 -16
-4 -3 -22 17 -14 32 15 27 15 -2 21 -10 20 -23z m147 17 c0 -5 -4 -10 -10 -10
-5 0 -10 5 -10 10 0 6 5 10 10 10 6 0 10 -4 10 -10z m57 -21 c-2 -12 -10 -25
-18 -30 -8 -5 -9 -9 -4 -9 6 0 3 -6 -5 -13 -8 -7 -16 -20 -18 -30 -3 -15 0
-16 17 -5 11 6 19 17 18 22 -4 19 43 14 54 -5 6 -13 6 -19 -1 -19 -5 0 -10 6
-10 13 0 7 -9 13 -20 14 -11 1 -18 -2 -15 -7 3 -4 -6 -15 -20 -24 -13 -9 -26
-12 -29 -8 -8 14 0 43 15 53 8 5 10 9 4 9 -5 0 -3 6 5 13 8 7 16 20 18 30 3
15 0 16 -17 5 -11 -6 -19 -17 -18 -22 4 -19 -43 -14 -54 5 -6 13 -6 19 1 19 5
0 10 -6 10 -13 0 -7 9 -13 20 -14 11 -1 19 2 17 7 -3 11 35 40 45 34 4 -3 6
-14 5 -25z m-267 -4 c0 -8 5 -14 12 -12 20 4 17 -43 -3 -54 -13 -6 -19 -6 -19
1 0 5 6 10 13 10 7 0 13 9 14 20 1 11 -2 18 -7 15 -5 -3 -14 4 -20 15 -7 13
-7 20 0 20 5 0 10 -7 10 -15z m295 5 c3 -5 1 -10 -4 -10 -6 0 -11 5 -11 10 0
6 2 10 4 10 3 0 8 -4 11 -10z m-330 -19 c-3 -6 -11 -9 -16 -6 -5 4 -9 -3 -9
-15 0 -12 4 -19 9 -16 10 7 43 -39 34 -48 -10 -10 -33 -7 -33 4 0 5 7 7 16 3
14 -5 14 -3 3 15 -7 11 -18 20 -23 19 -6 -1 -11 9 -11 23 0 15 5 24 13 23 6
-2 12 2 12 9 0 6 3 9 6 5 3 -3 3 -11 -1 -16z m-1559 -27 c3 -16 2 -26 -1 -23
-3 4 -8 19 -11 35 -3 16 -2 26 1 23 3 -4 8 -19 11 -35z m124 26 c0 -5 -4 -10
-10 -10 -5 0 -10 5 -10 10 0 6 5 10 10 10 6 0 10 -4 10 -10z m1636 -26 c3 -16
2 -26 -1 -23 -3 4 -8 19 -11 35 -3 16 -2 26 1 23 3 -4 8 -19 11 -35z m-1789
10 c-3 -3 -12 -4 -19 -1 -8 3 -5 6 6 6 11 1 17 -2 13 -5z m126 -12 c-2 -7 6
-12 17 -12 11 0 19 5 18 12 -2 6 6 13 17 15 18 3 18 2 2 -5 -10 -4 -18 -12
-18 -17 1 -6 -8 -10 -19 -10 -11 0 -20 4 -19 10 0 5 -8 13 -18 17 -16 7 -16 8
2 5 11 -2 19 -9 18 -15z m1487 8 c0 -5 -4 -10 -10 -10 -5 0 -10 5 -10 10 0 6
5 10 10 10 6 0 10 -4 10 -10z m57 -12 c-3 -8 -6 -5 -6 6 -1 11 2 17 5 13 3 -3
4 -12 1 -19z m90 16 c-3 -3 -12 -4 -19 -1 -8 3 -5 6 6 6 11 1 17 -2 13 -5z
m160 0 c-3 -3 -12 -4 -19 -1 -8 3 -5 6 6 6 11 1 17 -2 13 -5z m-1850 -10 c-3
-3 -12 -4 -19 -1 -8 3 -5 6 6 6 11 1 17 -2 13 -5z m170 0 c-3 -3 -12 -4 -19
-1 -8 3 -5 6 6 6 11 1 17 -2 13 -5z m70 0 c-3 -3 -12 -4 -19 -1 -8 3 -5 6 6 6
11 1 17 -2 13 -5z m1403 2 c0 -3 -4 -8 -10 -11 -5 -3 -10 -1 -10 4 0 6 5 11
10 11 6 0 10 -2 10 -4z m117 -2 c-3 -3 -12 -4 -19 -1 -8 3 -5 6 6 6 11 1 17
-2 13 -5z m-1732 -12 c-5 -4 -11 -16 -13 -27 -3 -20 -2 -20 13 -1 8 11 15 15
15 9 0 -15 -27 -36 -34 -25 -4 6 -2 31 3 50 1 1 7 2 14 2 7 0 8 -3 2 -8z m109
-22 c0 -13 -6 -25 -14 -28 -9 -2 -11 0 -5 5 6 4 10 15 10 23 0 8 -4 19 -10 23
-6 5 -4 7 5 5 8 -3 14 -15 14 -28z m66 20 c0 -5 -4 -10 -10 -10 -5 0 -10 5
-10 10 0 6 5 10 10 10 6 0 10 -4 10 -10z m65 2 c-5 -4 -10 -14 -10 -22 0 -8 5
-19 10 -23 6 -5 4 -7 -5 -5 -8 3 -14 14 -13 26 1 31 2 32 16 32 7 0 8 -3 2 -8z
m1436 -14 c6 -12 6 -18 -1 -18 -5 0 -10 6 -10 13 0 7 -9 13 -20 14 -11 1 -19
-3 -17 -9 1 -6 -5 -13 -13 -15 -13 -4 -13 -3 0 6 8 6 11 11 7 11 -5 0 -6 4 -2
9 9 16 46 8 56 -11z m-1711 -8 c0 -5 -2 -10 -4 -10 -3 0 -8 5 -11 10 -3 6 -1
10 4 10 6 0 11 -4 11 -10z m180 0 c0 -5 -4 -10 -10 -10 -5 0 -10 5 -10 10 0 6
5 10 10 10 6 0 10 -4 10 -10z m60 0 c0 -5 -4 -10 -10 -10 -5 0 -10 5 -10 10 0
6 5 10 10 10 6 0 10 -4 10 -10z m1390 0 c0 -5 -4 -10 -10 -10 -5 0 -10 5 -10
10 0 6 5 10 10 10 6 0 10 -4 10 -10z m130 0 c0 -5 -2 -10 -4 -10 -3 0 -8 5
-11 10 -3 6 -1 10 4 10 6 0 11 -4 11 -10z m-1830 -20 c0 -5 -4 -10 -10 -10 -5
0 -10 5 -10 10 0 6 5 10 10 10 6 0 10 -4 10 -10z m172 -5 c-2 -5 5 -13 15 -17
16 -7 16 -8 -2 -5 -11 2 -19 9 -17 15 1 7 -7 12 -19 12 -11 0 -18 -4 -14 -9 3
-6 -4 -15 -15 -21 -13 -7 -20 -7 -20 0 0 5 7 10 15 10 8 0 14 3 14 8 -3 18 3
23 24 20 12 -2 21 -7 19 -13z m108 5 c0 -5 -4 -10 -10 -10 -5 0 -10 5 -10 10
0 6 5 10 10 10 6 0 10 -4 10 -10z m1375 -21 c0 -14 -5 -23 -12 -21 -7 1 -13
-7 -13 -18 0 -11 5 -19 12 -17 20 4 17 -43 -3 -54 -13 -6 -19 -6 -19 1 0 5 6
10 13 10 7 0 13 9 14 20 1 11 -4 19 -10 17 -7 -1 -12 9 -12 23 0 15 5 24 13
22 15 -3 12 28 -3 41 -6 5 -4 7 5 4 8 -2 15 -14 15 -28z m105 21 c0 -5 -4 -10
-10 -10 -5 0 -10 5 -10 10 0 6 5 10 10 10 6 0 10 -4 10 -10z m57 -21 c-3 -19
-34 -48 -52 -49 -5 0 1 8 15 18 14 9 26 25 28 35 3 15 0 16 -17 5 -11 -6 -19
-17 -18 -22 1 -6 -9 -11 -23 -11 -15 0 -24 5 -22 13 1 6 -5 12 -13 12 -8 0
-15 5 -15 10 0 7 7 7 20 0 11 -6 18 -15 15 -21 -4 -5 3 -9 14 -9 12 0 20 4 19
9 -4 12 34 41 44 35 4 -3 6 -14 5 -25z m103 21 c0 -5 -4 -10 -10 -10 -5 0 -10
5 -10 10 0 6 5 10 10 10 6 0 10 -4 10 -10z m-335 -41 c6 1 10 -9 10 -21 0 -13
-5 -22 -12 -20 -7 1 -13 -7 -13 -19 0 -11 4 -18 9 -15 5 3 16 -5 25 -19 9 -13
12 -26 8 -29 -15 -9 -46 0 -50 15 -2 8 0 10 5 4 4 -5 16 -11 26 -13 15 -3 16
0 5 17 -6 11 -17 19 -22 18 -6 -1 -11 9 -11 23 0 15 5 24 13 23 6 -2 12 6 12
17 0 11 -6 19 -12 18 -7 -2 -14 8 -15 22 -2 24 -2 24 5 2 4 -13 12 -23 17 -23z
m92 19 c-3 -8 -6 -5 -6 6 -1 11 2 17 5 13 3 -3 4 -12 1 -19z m-1600 -10 c-3
-8 -6 -5 -6 6 -1 11 2 17 5 13 3 -3 4 -12 1 -19z m170 16 c-3 -3 -12 -4 -19
-1 -8 3 -5 6 6 6 11 1 17 -2 13 -5z m70 0 c-3 -3 -12 -4 -19 -1 -8 3 -5 6 6 6
11 1 17 -2 13 -5z m1308 -4 c-3 -5 -12 -10 -18 -10 -7 0 -6 4 3 10 19 12 23
12 15 0z m212 -12 c-3 -8 -6 -5 -6 6 -1 11 2 17 5 13 3 -3 4 -12 1 -19z m56 3
c-2 -6 6 -11 17 -11 11 0 19 5 18 11 -2 6 4 14 12 16 12 4 12 3 2 -5 -8 -5
-13 -13 -13 -18 1 -5 -9 -9 -21 -9 -13 0 -22 5 -20 13 1 6 -2 12 -8 12 -5 0
-10 -5 -10 -12 0 -6 -3 -9 -6 -5 -3 3 -3 11 1 17 8 14 31 7 28 -9z m-1733 -11
c0 -5 -4 -10 -10 -10 -5 0 -10 5 -10 10 0 6 5 10 10 10 6 0 10 -4 10 -10z m95
-10 c0 -7 -6 -14 -13 -16 -7 -1 -8 0 -2 3 16 8 12 19 -9 20 -13 1 -18 -5 -17
-20 1 -17 -5 -22 -24 -22 -26 0 -36 26 -12 31 7 1 8 0 2 -3 -16 -8 -12 -19 9
-20 13 -1 18 4 16 15 -1 9 -1 20 2 24 7 13 48 2 48 -12z m79 -10 c0 -19 -5
-25 -23 -26 -12 -1 -25 5 -28 12 -9 23 4 41 28 40 18 -1 23 -7 23 -26z m1377
13 c13 -16 12 -17 -3 -4 -16 12 -18 11 -18 -6 0 -14 7 -19 21 -19 21 1 35 -27
23 -45 -6 -11 -34 0 -34 13 0 6 6 6 14 -2 12 -9 15 -8 13 10 -1 15 -6 20 -20
16 -20 -5 -32 15 -23 39 7 19 11 19 27 -2z m-1611 -13 c0 -5 -4 -10 -10 -10
-5 0 -10 5 -10 10 0 6 5 10 10 10 6 0 10 -4 10 -10z m1757 4 c-2 -3 -17 -7
-33 -10 -17 -2 -24 -1 -17 4 13 8 58 14 50 6z m38 -12 c-3 -3 -11 0 -18 7 -9
10 -8 11 6 5 10 -3 15 -9 12 -12z m-1759 -35 c-2 -15 -10 -22 -24 -21 -14 0
-20 -5 -19 -18 1 -10 7 -18 14 -18 7 0 13 -5 13 -10 0 -7 -6 -7 -19 -1 -26 14
-23 57 4 53 15 -2 21 4 22 18 2 18 -1 19 -13 10 -9 -8 -14 -9 -14 -2 0 12 21
22 32 15 4 -2 6 -14 4 -26z m140 -3 c3 -16 2 -26 -1 -23 -3 4 -8 19 -11 35 -3
16 -2 26 1 23 3 -4 8 -19 11 -35z m1600 18 c1 -7 0 -8 -3 -2 -8 16 -19 12 -20
-9 -1 -13 5 -18 20 -17 17 1 22 -5 22 -24 0 -26 -26 -36 -31 -12 -1 7 0 8 3 2
8 -16 19 -12 20 9 1 13 -5 18 -20 17 -21 -1 -31 24 -19 47 5 11 25 3 28 -11z
m69 10 c-15 -11 -19 -46 -4 -36 8 4 10 3 5 -5 -16 -26 -28 7 -17 47 1 1 7 2
14 2 7 0 8 -3 2 -8z m-1868 -24 c-3 -8 -6 -5 -6 6 -1 11 2 17 5 13 3 -3 4 -12
1 -19z m1680 0 c-3 -8 -6 -5 -6 6 -1 11 2 17 5 13 3 -3 4 -12 1 -19z m43 12
c0 -5 -4 -10 -10 -10 -5 0 -10 5 -10 10 0 6 5 10 10 10 6 0 10 -4 10 -10z m27
-12 c-3 -8 -6 -5 -6 6 -1 11 2 17 5 13 3 -3 4 -12 1 -19z m80 0 c-3 -8 -6 -5
-6 6 -1 11 2 17 5 13 3 -3 4 -12 1 -19z m-1750 -10 c-3 -8 -6 -5 -6 6 -1 11 2
17 5 13 3 -3 4 -12 1 -19z m90 16 c-3 -3 -12 -4 -19 -1 -8 3 -5 6 6 6 11 1 17
-2 13 -5z m1373 -4 c0 -5 -4 -10 -10 -10 -5 0 -10 5 -10 10 0 6 5 10 10 10 6
0 10 -4 10 -10z m57 -12 c-3 -8 -6 -5 -6 6 -1 11 2 17 5 13 3 -3 4 -12 1 -19z
m-1477 8 c0 -3 -4 -8 -10 -11 -5 -3 -10 -1 -10 4 0 6 5 11 10 11 6 0 10 -2 10
-4z m117 -2 c-3 -3 -12 -4 -19 -1 -8 3 -5 6 6 6 11 1 17 -2 13 -5z m-317 -14
c0 -5 -4 -10 -10 -10 -5 0 -10 5 -10 10 0 6 5 10 10 10 6 0 10 -4 10 -10z
m345 2 c-5 -4 -10 -14 -10 -22 0 -8 5 -19 10 -23 6 -5 4 -7 -5 -5 -8 3 -14 14
-13 26 1 31 2 32 16 32 7 0 8 -3 2 -8z m1473 -13 c2 -8 0 -10 -5 -4 -4 6 -15
10 -23 10 -8 0 -18 -4 -22 -10 -5 -6 -8 -6 -8 1 0 16 8 21 32 19 12 -1 24 -8
26 -16z m-1748 -9 c0 -5 -5 -10 -11 -10 -5 0 -7 5 -4 10 3 6 8 10 11 10 2 0 4
-4 4 -10z m107 4 c-2 -3 -17 -7 -33 -10 -17 -2 -24 -1 -17 4 13 8 58 14 50 6z
m133 -4 c0 -5 -4 -10 -10 -10 -5 0 -10 5 -10 10 0 6 5 10 10 10 6 0 10 -4 10
-10z m1387 4 c-2 -3 -17 -7 -33 -10 -17 -2 -24 -1 -17 4 13 8 58 14 50 6z
m228 -4 c3 -5 1 -10 -4 -10 -6 0 -11 5 -11 10 0 6 2 10 4 10 3 0 8 -4 11 -10z
m-1894 -33 c-10 -9 -11 -8 -5 6 3 10 9 15 12 12 3 -3 0 -11 -7 -18z m116 -9
c-3 -8 -6 -5 -6 6 -1 11 2 17 5 13 3 -3 4 -12 1 -19z m1493 12 c0 -5 -5 -10
-11 -10 -5 0 -7 5 -4 10 3 6 8 10 11 10 2 0 4 -4 4 -10z m27 -12 c-3 -8 -6 -5
-6 6 -1 11 2 17 5 13 3 -3 4 -12 1 -19z m-1587 2 c0 -5 -7 -7 -15 -4 -8 4 -15
8 -15 10 0 2 7 4 15 4 8 0 15 -4 15 -10z m140 0 c0 -5 -4 -10 -10 -10 -5 0
-10 5 -10 10 0 6 5 10 10 10 6 0 10 -4 10 -10z m97 4 c-3 -3 -12 -4 -19 -1 -8
3 -5 6 6 6 11 1 17 -2 13 -5z m1423 -4 c0 -5 -4 -10 -10 -10 -5 0 -10 5 -10
10 0 6 5 10 10 10 6 0 10 -4 10 -10z m120 0 c0 -5 -4 -10 -10 -10 -5 0 -10 5
-10 10 0 6 5 10 10 10 6 0 10 -4 10 -10z m67 4 c-3 -3 -12 -4 -19 -1 -8 3 -5
6 6 6 11 1 17 -2 13 -5z m-1920 -10 c-3 -3 -12 -4 -19 -1 -8 3 -5 6 6 6 11 1
17 -2 13 -5z m1590 0 c-3 -3 -12 -4 -19 -1 -8 3 -5 6 6 6 11 1 17 -2 13 -5z
m-1557 -14 c0 -5 -4 -10 -10 -10 -5 0 -10 5 -10 10 0 6 5 10 10 10 6 0 10 -4
10 -10z m1136 -62 c-1 -12 -9 -24 -17 -26 -8 -2 -10 0 -4 5 15 12 19 47 4 37
-8 -4 -10 -3 -5 5 11 17 26 3 22 -21z m344 22 c0 -5 -4 -10 -10 -10 -5 0 -10
5 -10 10 0 6 5 10 10 10 6 0 10 -4 10 -10z m-323 -32 c-3 -8 -6 -5 -6 6 -1 11
2 17 5 13 3 -3 4 -12 1 -19z m70 0 c-3 -8 -6 -5 -6 6 -1 11 2 17 5 13 3 -3 4
-12 1 -19z m73 12 c0 -5 -4 -10 -10 -10 -5 0 -10 5 -10 10 0 6 5 10 10 10 6 0
10 -4 10 -10z m82 -15 c3 3 13 -6 22 -20 9 -14 15 -26 14 -26 -17 -8 -51 -3
-55 7 -3 8 -9 11 -14 8 -5 -3 -9 0 -9 5 0 15 20 14 26 -2 2 -7 13 -13 24 -14
16 -1 18 1 8 17 -7 10 -15 17 -19 14 -5 -2 -13 6 -19 18 -10 21 -10 21 3 6 8
-10 16 -15 19 -13z m-182 5 c0 -5 -4 -10 -10 -10 -5 0 -10 5 -10 10 0 6 5 10
10 10 6 0 10 -4 10 -10z m256 -37 c-6 -6 -36 9 -36 18 0 5 9 4 20 -3 10 -7 18
-14 16 -15z m-271 7 c3 -6 -1 -7 -9 -4 -18 7 -21 14 -7 14 6 0 13 -4 16 -10z
m35 0 c0 -5 -4 -10 -10 -10 -5 0 -10 5 -10 10 0 6 5 10 10 10 6 0 10 -4 10
-10z m60 -10 c0 -5 -6 -10 -13 -10 -7 0 -13 -9 -14 -20 -1 -11 2 -18 8 -15 5
4 14 -4 20 -17 6 -13 19 -25 30 -25 12 -1 17 3 13 9 -4 7 -2 8 5 4 17 -11 3
-26 -21 -23 -11 2 -26 14 -33 28 -8 13 -17 23 -22 21 -15 -5 -10 39 6 48 20
12 21 12 21 0z m-107 -18 c-4 -15 13 -16 20 -2 3 6 4 5 3 -2 -2 -7 -9 -13 -17
-13 -8 0 -13 6 -11 13 1 6 -7 12 -18 12 -11 0 -19 -5 -17 -11 1 -6 -5 -14 -13
-16 -13 -4 -13 -3 0 6 8 6 11 11 7 11 -5 0 -5 5 -2 11 9 14 51 7 48 -9z m54
-14 c-3 -8 -6 -5 -6 6 -1 11 2 17 5 13 3 -3 4 -12 1 -19z m213 12 c0 -5 -5
-10 -11 -10 -5 0 -7 5 -4 10 3 6 8 10 11 10 2 0 4 -4 4 -10z m27 -12 c-3 -8
-6 -5 -6 6 -1 11 2 17 5 13 3 -3 4 -12 1 -19z m-167 2 c0 -5 -4 -10 -10 -10
-5 0 -10 5 -10 10 0 6 5 10 10 10 6 0 10 -4 10 -10z m97 -6 c-3 -3 -12 -4 -19
-1 -8 3 -5 6 6 6 11 1 17 -2 13 -5z m-237 -14 c0 -5 -4 -10 -10 -10 -5 0 -10
5 -10 10 0 6 5 10 10 10 6 0 10 -4 10 -10z m57 -21 c-2 -12 -10 -25 -18 -30
-8 -5 -9 -9 -4 -9 6 0 3 -6 -5 -13 -8 -7 -16 -20 -18 -30 -3 -15 0 -16 17 -5
11 6 19 17 18 22 -4 19 43 14 54 -5 6 -13 6 -19 -1 -19 -5 0 -10 6 -10 13 0 7
-9 13 -20 14 -11 1 -18 -2 -15 -7 3 -4 -6 -15 -20 -24 -13 -9 -26 -12 -29 -8
-8 14 0 43 15 53 8 5 10 9 4 9 -5 0 -3 6 5 13 8 7 16 20 18 30 3 15 0 16 -17
5 -11 -6 -19 -17 -18 -22 4 -19 -43 -14 -54 5 -6 13 -6 19 1 19 5 0 10 -6 10
-13 0 -7 9 -13 20 -14 11 -1 19 2 17 7 -3 11 35 40 45 34 4 -3 6 -14 5 -25z
m141 5 c0 -17 -3 -22 -8 -13 -5 6 -6 18 -3 26 8 19 11 16 11 -13z m100 5 c2
-8 0 -10 -5 -4 -4 6 -17 11 -28 13 -20 3 -20 2 -1 -13 11 -8 15 -15 9 -15 -14
0 -34 25 -27 33 11 11 48 1 52 -14z m-213 -9 c3 -5 1 -10 -4 -10 -6 0 -11 5
-11 10 0 6 2 10 4 10 3 0 8 -4 11 -10z m145 -5 c0 -8 6 -14 13 -12 7 1 12 -8
12 -20 0 -13 -4 -23 -10 -22 -5 0 -13 -8 -17 -18 -7 -16 -8 -16 -5 2 2 11 9
19 15 18 7 -2 12 6 12 18 0 11 -4 18 -9 14 -6 -3 -15 4 -21 15 -7 13 -7 20 0
20 5 0 10 -7 10 -15z m86 -10 c-3 -9 -10 -13 -16 -10 -5 3 -10 -3 -10 -14 0
-12 5 -20 12 -18 6 1 13 -7 15 -18 3 -18 2 -18 -5 -2 -4 10 -12 18 -17 18 -6
-1 -10 9 -10 22 0 12 5 21 13 20 6 -2 12 5 12 14 0 9 3 14 6 10 4 -3 4 -13 0
-22z m-200 -31 c3 -16 2 -26 -1 -23 -3 4 -8 19 -11 35 -3 16 -2 26 1 23 3 -4
8 -19 11 -35z m-29 10 c-3 -3 -12 -4 -19 -1 -8 3 -5 6 6 6 11 1 17 -2 13 -5z
m133 -4 c0 -5 -4 -10 -10 -10 -5 0 -10 5 -10 10 0 6 5 10 10 10 6 0 10 -4 10
-10z m120 0 c0 -5 -4 -10 -10 -10 -5 0 -10 5 -10 10 0 6 5 10 10 10 6 0 10 -4
10 -10z m-343 -6 c-3 -3 -12 -4 -19 -1 -8 3 -5 6 6 6 11 1 17 -2 13 -5z m160
0 c-3 -3 -12 -4 -19 -1 -8 3 -5 6 6 6 11 1 17 -2 13 -5z m39 -22 c1 -7 0 -8
-3 -2 -8 16 -19 12 -20 -9 -1 -13 5 -18 20 -17 17 1 22 -5 22 -24 0 -26 -26
-36 -31 -12 -1 7 0 8 3 2 8 -16 19 -12 20 9 1 13 -5 18 -20 17 -21 -1 -31 24
-19 47 5 11 25 3 28 -11z m-206 -12 c0 -5 -2 -10 -4 -10 -3 0 -8 5 -11 10 -3
6 -1 10 4 10 6 0 11 -4 11 -10z m160 0 c0 -5 -2 -10 -4 -10 -3 0 -8 5 -11 10
-3 6 -1 10 4 10 6 0 11 -4 11 -10z m120 -15 c8 0 19 5 23 10 5 6 7 4 5 -5 -3
-8 -15 -14 -28 -14 -13 0 -25 6 -28 14 -2 9 0 11 5 5 4 -5 15 -10 23 -10z
m-294 -27 c-1 -12 -9 -24 -17 -26 -8 -2 -10 0 -4 5 15 12 19 47 4 37 -8 -4
-10 -3 -5 5 11 17 26 3 22 -21z m104 22 c0 -5 -4 -10 -10 -10 -5 0 -10 5 -10
10 0 6 5 10 10 10 6 0 10 -4 10 -10z m57 -21 c-2 -12 -10 -25 -18 -30 -12 -8
-12 -10 0 -18 15 -10 23 -39 15 -53 -3 -4 -16 -1 -29 8 -14 9 -22 20 -19 25 3
5 -4 9 -15 9 -12 0 -20 -6 -18 -12 1 -7 -4 -13 -12 -13 -8 0 -15 6 -17 13 -1
7 0 8 3 2 7 -14 23 -12 21 3 -2 7 7 12 22 12 14 0 24 -5 23 -11 -1 -5 7 -16
18 -22 17 -11 20 -10 17 5 -2 10 -10 24 -18 31 -13 11 -13 13 0 25 8 6 16 20
18 30 3 15 0 16 -17 5 -11 -6 -19 -17 -18 -22 1 -6 -9 -11 -23 -11 -15 0 -24
5 -22 13 2 14 -14 16 -21 2 -3 -6 -4 -5 -3 2 2 7 9 13 17 13 8 0 13 -6 12 -12
-2 -7 6 -13 17 -13 11 0 19 4 18 9 -4 12 34 41 44 35 4 -3 6 -14 5 -25z m-140
-11 c-3 -8 -6 -5 -6 6 -1 11 2 17 5 13 3 -3 4 -12 1 -19z m160 0 c-3 -8 -6 -5
-6 6 -1 11 2 17 5 13 3 -3 4 -12 1 -19z m80 0 c-3 -8 -6 -5 -6 6 -1 11 2 17 5
13 3 -3 4 -12 1 -19z m70 0 c-3 -8 -6 -5 -6 6 -1 11 2 17 5 13 3 -3 4 -12 1
-19z m-27 2 c0 -5 -4 -10 -10 -10 -5 0 -10 5 -10 10 0 6 5 10 10 10 6 0 10 -4
10 -10z m-260 -30 c0 -5 -4 -10 -10 -10 -5 0 -10 5 -10 10 0 6 5 10 10 10 6 0
10 -4 10 -10z m160 0 c0 -5 -4 -10 -10 -10 -5 0 -10 5 -10 10 0 6 5 10 10 10
6 0 10 -4 10 -10z m94 -5 c38 -29 29 -74 -9 -49 -14 9 -22 20 -19 25 3 5 -4 9
-15 9 -12 0 -20 -6 -18 -12 1 -7 -4 -13 -12 -13 -8 0 -15 6 -17 13 -1 7 0 8 3
2 7 -14 23 -12 21 3 -2 7 7 12 22 12 14 0 24 -5 23 -11 -1 -5 7 -16 18 -22 17
-11 20 -10 17 5 -2 10 -14 26 -28 35 -14 10 -20 18 -15 18 6 -1 19 -7 29 -15z
m65 0 c3 -3 -7 -4 -23 -1 -16 3 -31 8 -35 11 -3 3 7 4 23 1 16 -3 31 -8 35
-11z m-363 -33 c4 -24 -11 -38 -22 -21 -5 8 -3 9 5 5 15 -10 11 25 -4 37 -6 5
-4 7 4 5 8 -2 16 -14 17 -26z m21 -4 c-3 -8 -6 -5 -6 6 -1 11 2 17 5 13 3 -3
4 -12 1 -19z m160 0 c-3 -8 -6 -5 -6 6 -1 11 2 17 5 13 3 -3 4 -12 1 -19z
m160 0 c-3 -8 -6 -5 -6 6 -1 11 2 17 5 13 3 -3 4 -12 1 -19z m-237 -18 c0 -5
-4 -10 -10 -10 -5 0 -10 5 -10 10 0 6 5 10 10 10 6 0 10 -4 10 -10z m160 0 c0
-5 -4 -10 -10 -10 -5 0 -10 5 -10 10 0 6 5 10 10 10 6 0 10 -4 10 -10z m-604
-456 c-3 -15 -8 -29 -11 -32 -3 -3 -3 5 -1 19 2 13 5 27 5 32 1 4 3 7 6 7 3 0
3 -12 1 -26z m69 8 c-3 -3 -11 0 -18 7 -9 10 -8 11 6 5 10 -3 15 -9 12 -12z
m68 2 c-1 -5 7 -16 18 -22 17 -11 20 -10 17 5 -2 10 -7 22 -13 26 -6 5 -4 7 4
5 15 -4 24 -35 15 -50 -3 -4 -16 -1 -29 8 -14 9 -22 20 -19 25 3 5 -4 9 -15 9
-12 0 -20 -5 -18 -12 1 -6 -7 -13 -18 -15 l-20 -3 20 9 c11 5 16 10 12 10 -5
1 -5 6 -2 12 9 13 51 7 48 -7z m123 -17 c-2 -15 -10 -22 -24 -21 -14 0 -20 -5
-19 -18 1 -10 7 -18 14 -18 7 0 13 -5 13 -10 0 -7 -6 -7 -19 -1 -26 14 -23 57
4 53 15 -2 21 4 22 18 2 18 -1 19 -13 10 -9 -8 -14 -9 -14 -2 0 12 21 22 32
15 4 -2 6 -14 4 -26z m144 23 c0 -5 -4 -10 -10 -10 -5 0 -10 5 -10 10 0 6 5
10 10 10 6 0 10 -4 10 -10z m146 -2 c4 -6 3 -8 -4 -4 -6 4 -10 -1 -9 -13 0
-11 12 -24 25 -30 13 -6 21 -15 17 -20 -3 -6 4 -9 15 -8 11 1 20 7 20 14 0 7
5 13 10 13 7 0 7 -6 1 -19 -11 -19 -51 -24 -52 -6 0 6 -10 15 -21 21 -21 11
-32 40 -22 56 7 11 12 10 20 -4z m67 -4 c-1 -5 8 -16 19 -23 18 -11 20 -11 15
3 -4 9 -2 16 3 16 11 0 14 -23 4 -33 -9 -9 -55 24 -48 34 3 5 -4 9 -15 9 -12
0 -20 -5 -18 -11 1 -6 -5 -14 -13 -16 -13 -4 -13 -3 0 6 8 6 11 11 7 11 -5 0
-5 5 -2 11 9 13 51 7 48 -7z m-416 -16 c-3 -8 -6 -5 -6 6 -1 11 2 17 5 13 3
-3 4 -12 1 -19z m-160 6 c-3 -3 -12 -4 -19 -1 -8 3 -5 6 6 6 11 1 17 -2 13 -5z
m240 -16 c-3 -8 -6 -5 -6 6 -1 11 2 17 5 13 3 -3 4 -12 1 -19z m90 16 c-3 -3
-12 -4 -19 -1 -8 3 -5 6 6 6 11 1 17 -2 13 -5z m70 0 c-3 -3 -12 -4 -19 -1 -8
3 -5 6 6 6 11 1 17 -2 13 -5z m70 -16 c-3 -8 -6 -5 -6 6 -1 11 2 17 5 13 3 -3
4 -12 1 -19z m-540 6 c-3 -3 -12 -4 -19 -1 -8 3 -5 6 6 6 11 1 17 -2 13 -5z
m353 2 c0 -3 -4 -8 -10 -11 -5 -3 -10 -1 -10 4 0 6 5 11 10 11 6 0 10 -2 10
-4z m160 -6 c0 -5 -2 -10 -4 -10 -3 0 -8 5 -11 10 -3 6 -1 10 4 10 6 0 11 -4
11 -10z m-544 -28 c4 -24 -11 -38 -22 -21 -5 8 -3 9 5 5 15 -10 11 25 -4 37
-6 5 -4 7 4 5 8 -2 16 -14 17 -26z m117 10 c-2 -7 6 -11 20 -9 12 1 21 -3 20
-10 -2 -6 6 -11 17 -10 11 1 20 7 20 14 0 7 5 13 10 13 7 0 7 -6 1 -19 -11
-20 -58 -23 -54 -3 2 7 -6 11 -20 9 -12 -1 -21 3 -20 10 2 6 -6 11 -17 10 -11
-1 -20 -7 -20 -14 0 -7 -5 -13 -10 -13 -7 0 -7 6 -1 19 11 20 58 23 54 3z m67
8 c0 -5 -4 -10 -10 -10 -5 0 -10 5 -10 10 0 6 5 10 10 10 6 0 10 -4 10 -10z
m261 -11 c8 -12 10 -12 18 0 10 15 39 23 53 15 4 -3 1 -16 -8 -29 -9 -14 -20
-22 -25 -19 -5 3 -9 -4 -9 -16 0 -12 4 -19 9 -16 5 3 16 -5 25 -19 9 -13 12
-26 8 -29 -14 -8 -43 0 -53 15 -8 12 -10 12 -18 0 -10 -15 -39 -23 -53 -15 -4
3 -1 16 8 29 9 14 20 22 25 19 5 -3 9 4 9 16 0 12 -4 19 -9 16 -10 -7 -43 39
-34 48 10 9 44 0 54 -15z m219 11 c0 -5 -4 -10 -10 -10 -5 0 -10 5 -10 10 0 6
5 10 10 10 6 0 10 -4 10 -10z m71 -13 c-10 -9 -11 -8 -5 6 3 10 9 15 12 12 3
-3 0 -11 -7 -18z m-701 -1 c0 -3 -4 -8 -10 -11 -5 -3 -10 -1 -10 4 0 6 5 11
10 11 6 0 10 -2 10 -4z m220 -6 c0 -5 -5 -10 -11 -10 -5 0 -7 5 -4 10 3 6 8
10 11 10 2 0 4 -4 4 -10z m107 4 c-2 -3 -17 -7 -33 -10 -17 -2 -24 -1 -17 4
13 8 58 14 50 6z m242 -9 c3 -3 -7 -4 -23 -1 -16 3 -31 8 -35 11 -3 3 7 4 23
1 16 -3 31 -8 35 -11z m-219 -5 c0 -5 -6 -10 -13 -10 -7 0 -13 -9 -14 -20 -1
-11 4 -19 10 -17 7 1 12 -4 12 -12 0 -8 -6 -15 -13 -17 -7 -1 -8 0 -2 3 14 7
13 24 -2 21 -18 -4 -18 41 1 52 20 12 21 12 21 0z m176 -32 c-1 -13 -7 -22
-14 -20 -15 3 -16 -14 -2 -21 6 -3 5 -4 -2 -3 -7 2 -13 9 -13 17 0 8 5 13 12
12 6 -2 11 6 10 17 -1 11 -7 20 -14 20 -7 0 -13 5 -13 10 0 7 6 7 19 1 10 -6
18 -20 17 -33z m-482 -9 c-3 -5 4 -9 15 -9 12 0 20 5 19 12 -2 6 6 13 17 15
18 3 18 2 2 -5 -10 -4 -18 -12 -18 -17 1 -6 -9 -10 -21 -10 -13 0 -22 5 -21
11 1 5 -7 16 -18 22 -17 11 -20 10 -17 -5 2 -10 14 -26 28 -35 14 -10 21 -18
15 -18 -17 1 -49 29 -51 47 -4 28 6 34 31 17 14 -9 22 -20 19 -25z m26 31 c0
-5 -4 -10 -10 -10 -5 0 -10 5 -10 10 0 6 5 10 10 10 6 0 10 -4 10 -10z m111
-13 c-10 -9 -11 -8 -5 6 3 10 9 15 12 12 3 -3 0 -11 -7 -18z m116 -9 c-3 -8
-6 -5 -6 6 -1 11 2 17 5 13 3 -3 4 -12 1 -19z m250 0 c-3 -8 -6 -5 -6 6 -1 11
2 17 5 13 3 -3 4 -12 1 -19z m38 12 c3 -5 1 -10 -4 -10 -6 0 -11 5 -11 10 0 6
2 10 4 10 3 0 8 -4 11 -10z m-608 -22 c-3 -8 -6 -5 -6 6 -1 11 2 17 5 13 3 -3
4 -12 1 -19z m253 10 c0 -4 -7 -8 -15 -8 -8 0 -15 4 -15 8 0 5 7 9 15 9 8 0
15 -4 15 -9z m140 2 c0 -5 -4 -10 -10 -10 -5 0 -10 5 -10 10 0 6 5 10 10 10 6
0 10 -4 10 -10z m120 0 c0 -5 -4 -10 -10 -10 -5 0 -10 5 -10 10 0 6 5 10 10
10 6 0 10 -4 10 -10z m-333 -6 c-3 -3 -12 -4 -19 -1 -8 3 -5 6 6 6 11 1 17 -2
13 -5z m480 0 c-3 -3 -12 -4 -19 -1 -8 3 -5 6 6 6 11 1 17 -2 13 -5z m70 0
c-3 -3 -12 -4 -19 -1 -8 3 -5 6 6 6 11 1 17 -2 13 -5z m-583 -35 c0 -18 -5
-23 -20 -22 -13 1 -20 -4 -21 -18 -2 -18 0 -19 15 -7 15 12 16 11 3 -4 -17
-22 -32 -14 -27 15 2 15 10 21 24 20 21 -2 26 25 7 40 -6 5 -4 7 5 5 8 -3 14
-15 14 -29z m66 21 c0 -5 -4 -10 -10 -10 -5 0 -10 5 -10 10 0 6 5 10 10 10 6
0 10 -4 10 -10z m95 -10 c0 -7 -6 -14 -13 -16 -7 -1 -8 0 -2 3 16 8 12 19 -9
20 -13 1 -18 -5 -17 -20 1 -17 -5 -22 -24 -22 -26 0 -36 26 -12 31 7 1 8 0 2
-3 -16 -8 -12 -19 9 -20 13 -1 18 4 16 15 -1 9 -1 20 2 24 7 13 48 2 48 -12z
m319 -7 c-1 -15 4 -21 17 -20 21 1 25 12 9 20 -6 3 -5 4 2 3 24 -5 14 -31 -12
-31 -19 0 -25 5 -24 22 1 15 -4 21 -17 20 -22 -1 -25 -13 -6 -20 9 -4 9 -6 0
-6 -15 -1 -26 16 -19 28 3 4 16 8 28 7 17 -1 23 -7 22 -23z m66 17 c0 -5 -4
-10 -10 -10 -5 0 -10 5 -10 10 0 6 5 10 10 10 6 0 10 -4 10 -10z m-661 -25 c3
-3 -7 -4 -23 -1 -16 3 -31 8 -35 11 -3 3 7 4 23 1 16 -3 31 -8 35 -11z m151 5
c0 -5 -4 -10 -10 -10 -5 0 -10 5 -10 10 0 6 5 10 10 10 6 0 10 -4 10 -10z
m540 0 c0 -5 -4 -10 -10 -10 -5 0 -10 5 -10 10 0 6 5 10 10 10 6 0 10 -4 10
-10z m-734 -38 c4 -24 -11 -38 -22 -21 -5 8 -3 9 5 5 15 -10 11 25 -4 37 -6 5
-4 7 4 5 8 -2 16 -14 17 -26z m220 -8 c3 -16 2 -26 -1 -23 -3 4 -8 19 -11 35
-3 16 -2 26 1 23 3 -4 8 -19 11 -35z m124 26 c0 -5 -4 -10 -10 -10 -5 0 -10 5
-10 10 0 6 5 10 10 10 6 0 10 -4 10 -10z m240 0 c0 -5 -4 -10 -10 -10 -5 0
-10 5 -10 10 0 6 5 10 10 10 6 0 10 -4 10 -10z m116 -16 c-3 -15 -8 -29 -11
-32 -3 -3 -3 5 -1 19 2 13 5 27 5 32 1 4 3 7 6 7 3 0 3 -12 1 -26z m-679 -6
c-3 -8 -6 -5 -6 6 -1 11 2 17 5 13 3 -3 4 -12 1 -19z m43 12 c0 -5 -4 -10 -10
-10 -5 0 -10 5 -10 10 0 6 5 10 10 10 6 0 10 -4 10 -10z m27 -12 c-3 -8 -6 -5
-6 6 -1 11 2 17 5 13 3 -3 4 -12 1 -19z m100 6 c-3 -3 -12 -4 -19 -1 -8 3 -5
6 6 6 11 1 17 -2 13 -5z m126 -12 c-2 -7 6 -12 17 -12 11 0 19 5 18 12 -2 6 6
13 17 15 18 3 18 2 2 -5 -10 -4 -18 -12 -18 -17 1 -6 -8 -10 -19 -10 -11 0
-20 4 -19 10 0 5 -8 13 -18 17 -16 7 -16 8 2 5 11 -2 19 -9 18 -15z m240 0
c-2 -7 6 -12 17 -12 11 0 19 5 18 12 -2 6 6 13 17 15 18 3 18 2 2 -5 -10 -4
-18 -12 -18 -17 1 -6 -8 -10 -19 -10 -11 0 -20 4 -19 10 0 5 -8 13 -18 17 -16
7 -16 8 2 5 11 -2 19 -9 18 -15z m184 12 c-3 -3 -12 -4 -19 -1 -8 3 -5 6 6 6
11 1 17 -2 13 -5z m-480 -10 c-3 -3 -12 -4 -19 -1 -8 3 -5 6 6 6 11 1 17 -2
13 -5z m170 0 c-3 -3 -12 -4 -19 -1 -8 3 -5 6 6 6 11 1 17 -2 13 -5z m70 0
c-3 -3 -12 -4 -19 -1 -8 3 -5 6 6 6 11 1 17 -2 13 -5z m170 0 c-3 -3 -12 -4
-19 -1 -8 3 -5 6 6 6 11 1 17 -2 13 -5z m-589 -25 c2 -8 0 -10 -5 -4 -4 6 -15
10 -23 10 -8 0 -18 -4 -22 -10 -5 -6 -8 -6 -8 1 0 16 8 21 32 19 12 -1 24 -8
26 -16z m123 -1 c6 -12 6 -18 -1 -18 -5 0 -10 6 -10 13 0 7 -9 13 -20 14 -11
1 -18 -2 -15 -7 3 -5 -4 -14 -15 -20 -13 -7 -20 -7 -20 0 0 5 7 10 15 10 8 0
14 3 14 8 -3 16 2 21 22 19 11 -1 25 -9 30 -19z m84 14 c-5 -4 -11 -16 -13
-27 -3 -20 -2 -20 13 -1 8 11 15 15 15 9 0 -15 -27 -36 -34 -25 -4 6 -2 31 3
50 1 1 7 2 14 2 7 0 8 -3 2 -8z m109 -22 c0 -13 -6 -25 -14 -28 -9 -2 -11 0
-5 5 6 4 10 15 10 23 0 8 -4 19 -10 23 -6 5 -4 7 5 5 8 -3 14 -15 14 -28z m66
20 c0 -5 -4 -10 -10 -10 -5 0 -10 5 -10 10 0 6 5 10 10 10 6 0 10 -4 10 -10z
m65 2 c-5 -4 -10 -14 -10 -22 0 -8 5 -19 10 -23 6 -5 4 -7 -5 -5 -8 3 -14 14
-13 26 1 31 2 32 16 32 7 0 8 -3 2 -8z m111 -17 c2 -10 0 -23 -2 -27 -7 -11
-34 10 -34 25 0 6 7 2 15 -9 15 -19 16 -19 13 1 -2 11 -7 24 -13 28 -6 5 -4 7
4 5 8 -2 15 -13 17 -23z m-611 -26 c6 1 10 -9 10 -21 0 -13 -5 -22 -12 -20 -7
1 -13 -5 -13 -13 0 -8 -5 -15 -10 -15 -7 0 -7 7 0 20 6 11 15 18 21 15 5 -4 9
3 9 14 0 12 -5 20 -12 19 -6 -2 -13 6 -15 17 -3 18 -2 18 5 2 4 -10 12 -18 17
-18z m71 6 c-3 -9 -10 -13 -16 -10 -5 3 -10 -3 -10 -14 0 -12 5 -20 12 -18 6
1 13 -7 15 -18 3 -18 2 -18 -5 -2 -4 10 -12 18 -17 18 -6 -1 -10 9 -10 22 0
12 5 21 13 20 6 -2 12 5 12 14 0 9 3 14 6 10 4 -3 4 -13 0 -22z m154 15 c0 -5
-2 -10 -4 -10 -3 0 -8 5 -11 10 -3 6 -1 10 4 10 6 0 11 -4 11 -10z m180 0 c0
-5 -4 -10 -10 -10 -5 0 -10 5 -10 10 0 6 5 10 10 10 6 0 10 -4 10 -10z m60 0
c0 -5 -4 -10 -10 -10 -5 0 -10 5 -10 10 0 6 5 10 10 10 6 0 10 -4 10 -10z
m180 6 c0 -3 -4 -8 -10 -11 -5 -3 -10 -1 -10 4 0 6 5 11 10 11 6 0 10 -2 10
-4z m-490 -26 c0 -5 -4 -10 -10 -10 -5 0 -10 5 -10 10 0 6 5 10 10 10 6 0 10
-4 10 -10z m57 -21 c-3 -19 -34 -48 -52 -49 -5 0 1 8 15 18 14 9 26 25 28 35
3 15 0 16 -17 5 -11 -6 -19 -17 -18 -22 1 -6 -8 -11 -20 -11 -13 0 -23 4 -22
9 0 5 -5 13 -13 18 -10 8 -10 9 2 5 8 -2 14 -10 13 -16 -2 -6 6 -11 17 -11 11
0 19 4 18 9 -4 12 34 41 44 35 4 -3 6 -14 5 -25z m115 16 c-2 -5 5 -13 15 -17
16 -7 16 -8 -2 -5 -11 2 -19 9 -17 15 1 7 -7 12 -19 12 -11 0 -18 -4 -14 -9 3
-6 -4 -15 -15 -21 -13 -7 -20 -7 -20 0 0 5 7 10 15 10 8 0 14 3 14 8 -3 18 3
23 24 20 12 -2 21 -7 19 -13z m108 5 c0 -5 -4 -10 -10 -10 -5 0 -10 5 -10 10
0 6 5 10 10 10 6 0 10 -4 10 -10z m133 -8 c-2 -6 4 -12 12 -12 8 0 15 -5 15
-10 0 -7 -7 -7 -20 0 -11 6 -18 15 -15 21 4 5 -3 9 -14 9 -12 0 -20 -5 -18
-12 1 -6 -7 -13 -18 -15 l-20 -3 20 9 c11 5 16 10 12 10 -5 1 -5 6 -2 12 9 14
51 7 48 -9z m147 8 c0 -5 -4 -10 -10 -10 -5 0 -10 5 -10 10 0 6 5 10 10 10 6
0 10 -4 10 -10z m-740 -20 c0 -5 -4 -10 -10 -10 -5 0 -10 5 -10 10 0 6 5 10
10 10 6 0 10 -4 10 -10z m120 0 c0 -5 -4 -10 -10 -10 -5 0 -10 5 -10 10 0 6 5
10 10 10 6 0 10 -4 10 -10z m137 -12 c-3 -8 -6 -5 -6 6 -1 11 2 17 5 13 3 -3
4 -12 1 -19z m170 16 c-3 -3 -12 -4 -19 -1 -8 3 -5 6 6 6 11 1 17 -2 13 -5z
m70 0 c-3 -3 -12 -4 -19 -1 -8 3 -5 6 6 6 11 1 17 -2 13 -5z m150 -16 c-3 -8
-6 -5 -6 6 -1 11 2 17 5 13 3 -3 4 -12 1 -19z m-307 -8 c0 -5 -4 -10 -10 -10
-5 0 -10 5 -10 10 0 6 5 10 10 10 6 0 10 -4 10 -10z m95 -20 c0 -17 -7 -24
-25 -27 -18 -2 -21 -1 -10 6 8 5 18 7 22 5 4 -3 8 3 8 13 0 11 -8 19 -19 20
-14 1 -18 -3 -14 -13 3 -8 1 -14 -5 -14 -8 0 -9 17 -3 37 1 2 11 1 24 -1 15
-2 22 -10 22 -26z m79 3 c-1 -15 4 -21 17 -20 21 1 25 12 9 20 -6 3 -5 4 2 3
24 -5 14 -31 -12 -31 -19 0 -25 5 -24 22 1 15 -4 21 -17 20 -22 -1 -25 -13 -6
-20 9 -4 9 -6 0 -6 -15 -1 -26 16 -19 28 3 4 16 8 28 7 17 -1 23 -7 22 -23z
m66 17 c0 -5 -4 -10 -10 -10 -5 0 -10 5 -10 10 0 6 5 10 10 10 6 0 10 -4 10
-10z m-445 -10 c3 -5 1 -10 -4 -10 -6 0 -11 5 -11 10 0 6 2 10 4 10 3 0 8 -4
11 -10z m-91 -15 c-19 -15 -19 -16 1 -13 11 2 24 8 28 13 5 6 7 4 5 -4 -4 -15
-35 -24 -50 -15 -11 7 10 34 25 34 6 0 2 -7 -9 -15z m233 9 c-2 -3 -17 -7 -33
-10 -17 -2 -24 -1 -17 4 13 8 58 14 50 6z m86 -1 c-7 -2 -13 -9 -13 -14 0 -6
5 -7 12 -3 7 5 8 3 3 -5 -5 -9 -11 -9 -17 -3 -12 12 -2 32 15 31 9 0 9 -2 0
-6z m316 -8 c3 -3 -7 -4 -23 -1 -16 3 -31 8 -35 11 -3 3 7 4 23 1 16 -3 31 -8
35 -11z m-524 -35 c0 -19 -5 -25 -24 -25 -16 0 -25 6 -27 19 -4 27 2 33 28 32
17 -1 23 -7 23 -26z m160 -1 c0 -19 -6 -24 -25 -24 -18 0 -25 6 -26 20 -1 29
5 35 29 31 16 -2 22 -10 22 -27z m141 5 c-3 -15 -8 -29 -11 -32 -3 -3 -3 5 -1
19 2 13 5 27 5 32 1 4 3 7 6 7 3 0 3 -12 1 -26z m179 -4 c0 -19 -5 -25 -24
-25 -16 0 -25 6 -27 19 -4 27 2 33 28 32 17 -1 23 -7 23 -26z m-458 -2 c-3 -8
-6 -5 -6 6 -1 11 2 17 5 13 3 -3 4 -12 1 -19z m43 12 c0 -5 -4 -10 -10 -10 -5
0 -10 5 -10 10 0 6 5 10 10 10 6 0 10 -4 10 -10z m27 -12 c-3 -8 -6 -5 -6 6
-1 11 2 17 5 13 3 -3 4 -12 1 -19z m410 0 c-3 -8 -6 -5 -6 6 -1 11 2 17 5 13
3 -3 4 -12 1 -19z m43 12 c0 -5 -4 -10 -10 -10 -5 0 -10 5 -10 10 0 6 5 10 10
10 6 0 10 -4 10 -10z m27 -12 c-3 -8 -6 -5 -6 6 -1 11 2 17 5 13 3 -3 4 -12 1
-19z m-710 6 c-3 -3 -12 -4 -19 -1 -8 3 -5 6 6 6 11 1 17 -2 13 -5z m70 -16
c-3 -8 -6 -5 -6 6 -1 11 2 17 5 13 3 -3 4 -12 1 -19z m250 0 c-3 -8 -6 -5 -6
6 -1 11 2 17 5 13 3 -3 4 -12 1 -19z m40 15 c-4 -3 1 -11 10 -18 13 -9 13 -14
3 -20 -9 -5 -11 -4 -6 3 4 7 1 12 -8 12 -9 0 -16 4 -16 8 0 10 11 22 18 22 3
0 2 -3 -1 -7z m120 1 c-3 -3 -12 -4 -19 -1 -8 3 -5 6 6 6 11 1 17 -2 13 -5z
m70 -16 c-3 -8 -6 -5 -6 6 -1 11 2 17 5 13 3 -3 4 -12 1 -19z m-507 2 c0 -5
-2 -10 -4 -10 -3 0 -8 5 -11 10 -3 6 -1 10 4 10 6 0 11 -4 11 -10z m367 4 c-3
-3 -12 -4 -19 -1 -8 3 -5 6 6 6 11 1 17 -2 13 -5z m113 -4 c0 -5 -2 -10 -4
-10 -3 0 -8 5 -11 10 -3 6 -1 10 4 10 6 0 11 -4 11 -10z m-505 -10 c3 -5 0
-12 -6 -16 -7 -4 -9 -3 -5 4 4 7 -1 10 -14 9 -11 -1 -20 -6 -20 -11 0 -5 -3
-7 -6 -3 -10 10 3 23 25 24 11 1 23 -2 26 -7z m203 -11 c2 -8 0 -10 -5 -4 -4
6 -15 10 -23 10 -8 0 -18 -4 -22 -10 -5 -6 -8 -6 -8 1 0 16 8 21 32 19 12 -1
24 -8 26 -16z m277 11 c3 -5 0 -12 -6 -16 -7 -4 -9 -3 -5 4 4 7 -1 10 -14 9
-11 -1 -20 -6 -20 -11 0 -5 -3 -7 -6 -3 -10 10 3 23 25 24 11 1 23 -2 26 -7z
m203 -11 c2 -8 0 -10 -5 -4 -4 6 -15 10 -23 10 -8 0 -18 -4 -22 -10 -5 -6 -8
-6 -8 1 0 16 8 21 32 19 12 -1 24 -8 26 -16z m452 -809 l0 -400 -202 2 -202 3
1 180 c0 99 1 278 2 398 l1 217 200 0 200 0 0 -400z m-640 -15 c8 0 19 5 23
10 5 6 7 4 5 -5 -3 -8 -15 -14 -28 -14 -13 0 -25 6 -28 14 -2 9 0 11 5 5 4 -5
15 -10 23 -10z m185 4 c-9 -13 27 -8 38 6 5 6 7 4 5 -4 -4 -15 -35 -24 -50
-15 -8 5 -2 24 8 24 3 0 2 -5 -1 -11z m-283 -13 c-2 -5 2 -13 10 -18 10 -8 10
-9 -2 -5 -8 2 -14 10 -12 16 1 6 -7 11 -18 11 -11 0 -19 -5 -17 -11 1 -6 -5
-14 -13 -16 -13 -4 -13 -3 0 6 8 6 11 11 7 11 -5 0 -5 5 -2 11 8 12 51 8 47
-5z m44 -18 c-1 -12 -8 -24 -14 -26 -7 -2 -10 -8 -7 -13 4 -5 -1 -6 -10 -3
-10 4 -15 2 -13 -7 5 -21 -41 -19 -53 2 -6 13 -6 19 1 19 5 0 10 -6 10 -13 0
-7 9 -13 20 -14 11 -1 18 2 15 8 -4 5 4 14 17 20 13 6 25 19 25 30 1 12 -3 17
-9 13 -7 -4 -8 -2 -4 5 11 17 26 3 22 -21z m159 2 c0 -19 -5 -25 -24 -25 -16
0 -25 6 -27 19 -4 27 2 33 28 32 17 -1 23 -7 23 -26z m22 -2 c-3 -8 -6 -5 -6
6 -1 11 2 17 5 13 3 -3 4 -12 1 -19z m38 12 c3 -5 1 -10 -4 -10 -6 0 -11 5
-11 10 0 6 2 10 4 10 3 0 8 -4 11 -10z m-198 -22 c-3 -8 -6 -5 -6 6 -1 11 2
17 5 13 3 -3 4 -12 1 -19z m70 0 c-3 -8 -6 -5 -6 6 -1 11 2 17 5 13 3 -3 4
-12 1 -19z m-27 2 c0 -5 -4 -10 -10 -10 -5 0 -10 5 -10 10 0 6 5 10 10 10 6 0
10 -4 10 -10z m207 4 c-3 -3 -12 -4 -19 -1 -8 3 -5 6 6 6 11 1 17 -2 13 -5z
m-327 -14 c0 -5 -4 -10 -10 -10 -5 0 -10 5 -10 10 0 6 5 10 10 10 6 0 10 -4
10 -10z m294 -17 c-1 -15 4 -21 17 -20 21 1 25 12 9 20 -6 3 -5 4 2 3 24 -5
14 -31 -12 -31 -19 0 -25 5 -24 22 1 15 -4 21 -17 20 -22 -1 -25 -13 -6 -20 9
-4 9 -6 0 -6 -15 -1 -26 16 -19 28 3 4 16 8 28 7 17 -1 23 -7 22 -23z m-180
-8 c38 -29 29 -74 -9 -49 -14 9 -22 20 -19 25 3 5 -4 9 -16 9 -12 0 -18 -4
-15 -10 3 -5 -4 -15 -17 -21 -13 -6 -25 -19 -25 -30 -1 -12 3 -17 9 -13 7 4 8
2 4 -5 -4 -6 -12 -9 -17 -6 -12 8 -5 48 9 53 7 2 10 8 7 13 -4 5 1 6 10 3 10
-4 15 -2 13 7 -2 9 6 14 22 14 14 0 24 -5 23 -11 -1 -5 7 -16 18 -22 17 -11
20 -10 17 5 -2 10 -14 26 -28 35 -14 10 -20 18 -15 18 6 -1 19 -7 29 -15z m65
0 c3 -3 -7 -4 -23 -1 -16 3 -31 8 -35 11 -3 3 7 4 23 1 16 -3 31 -8 35 -11z
m61 -15 c0 -5 -4 -10 -10 -10 -5 0 -10 5 -10 10 0 6 5 10 10 10 6 0 10 -4 10
-10z m-83 -22 c-3 -8 -6 -5 -6 6 -1 11 2 17 5 13 3 -3 4 -12 1 -19z m58 -9
c-4 -5 3 -9 14 -9 12 0 20 5 19 12 -2 6 6 13 17 15 18 3 18 2 2 -5 -10 -4 -18
-12 -18 -17 1 -6 -9 -10 -21 -10 -13 0 -22 5 -20 13 1 6 -5 12 -13 12 -8 0
-15 5 -15 10 0 7 7 7 20 0 11 -6 18 -15 15 -21z m-218 5 c-3 -3 -12 -4 -19 -1
-8 3 -5 6 6 6 11 1 17 -2 13 -5z m330 0 c-3 -3 -12 -4 -19 -1 -8 3 -5 6 6 6
11 1 17 -2 13 -5z m-247 -14 c0 -5 -4 -10 -10 -10 -5 0 -10 5 -10 10 0 6 5 10
10 10 6 0 10 -4 10 -10z m120 -23 c0 -6 -7 -2 -15 9 -15 19 -16 19 -13 -1 2
-11 8 -24 13 -28 6 -5 4 -7 -4 -5 -15 4 -24 35 -15 50 7 11 34 -10 34 -25z
m94 3 c0 -13 -6 -25 -14 -28 -9 -2 -11 0 -5 5 6 4 10 15 10 23 0 8 -4 19 -10
23 -6 5 -4 7 5 5 8 -3 14 -15 14 -28z m-304 0 c0 -5 -2 -10 -4 -10 -3 0 -8 5
-11 10 -3 6 -1 10 4 10 6 0 11 -4 11 -10z m63 -8 c-2 -6 6 -10 17 -9 11 1 20
7 20 14 0 7 5 13 10 13 7 0 7 -6 1 -19 -10 -18 -52 -24 -50 -7 0 5 -5 13 -13
18 -10 8 -10 9 2 5 8 -2 14 -9 13 -15z m97 8 c0 -5 -5 -10 -11 -10 -5 0 -7 5
-4 10 3 6 8 10 11 10 2 0 4 -4 4 -10z m180 0 c0 -5 -4 -10 -10 -10 -5 0 -10 5
-10 10 0 6 5 10 10 10 6 0 10 -4 10 -10z m-354 -42 c-1 -12 -9 -24 -17 -26 -8
-2 -10 0 -4 5 15 12 19 47 4 37 -8 -4 -10 -3 -5 5 11 17 26 3 22 -21z m140 6
c-3 -15 -8 -29 -11 -32 -3 -3 -3 5 -1 19 2 13 5 27 5 32 1 4 3 7 6 7 3 0 3
-12 1 -26z m136 11 c-2 -5 5 -13 15 -17 16 -7 16 -8 -2 -5 -11 2 -19 9 -17 15
1 7 -7 12 -18 12 -11 0 -19 -5 -17 -12 1 -6 -7 -13 -18 -15 l-20 -3 20 9 c11
5 16 10 12 10 -5 1 -5 6 -2 12 8 13 51 8 47 -6z m-255 -27 c-3 -8 -6 -5 -6 6
-1 11 2 17 5 13 3 -3 4 -12 1 -19z m39 13 c-3 -5 0 -11 8 -14 12 -5 17 -44 6
-49 -3 -2 -16 5 -30 15 -13 9 -20 17 -16 17 5 0 17 -7 27 -16 17 -15 18 -15
16 5 -1 12 -7 21 -14 21 -14 0 -17 12 -6 23 9 10 15 9 9 -2z m121 3 c-3 -3
-12 -4 -19 -1 -8 3 -5 6 6 6 11 1 17 -2 13 -5z m170 0 c-3 -3 -12 -4 -19 -1
-8 3 -5 6 6 6 11 1 17 -2 13 -5z m-240 -10 c-3 -3 -12 -4 -19 -1 -8 3 -5 6 6
6 11 1 17 -2 13 -5z m88 -14 c3 -5 0 -12 -6 -16 -7 -4 -9 -3 -5 4 4 6 -1 10
-13 9 -11 0 -24 -12 -30 -25 -6 -13 -16 -20 -22 -17 -13 9 -8 -27 6 -38 6 -5
4 -7 -5 -4 -17 4 -21 40 -5 45 6 2 15 13 22 25 11 23 48 33 58 17z m65 0 c0
-5 -4 -10 -10 -10 -5 0 -10 5 -10 10 0 6 5 10 10 10 6 0 10 -4 10 -10z m95
-23 c1 -14 -3 -23 -7 -20 -5 2 -6 12 -3 22 3 12 -1 17 -16 18 -18 2 -19 0 -7
-15 12 -15 11 -16 -4 -3 -22 17 -14 32 15 27 16 -2 22 -10 22 -29z m-245 9 c0
-3 -4 -8 -10 -11 -5 -3 -10 -1 -10 4 0 6 5 11 10 11 6 0 10 -2 10 -4z m115 -6
c-3 -5 -11 -10 -16 -10 -6 0 -7 5 -4 10 3 6 11 10 16 10 6 0 7 -4 4 -10z m65
-5 c0 -8 5 -14 12 -12 20 4 17 -43 -3 -54 -13 -6 -19 -6 -19 1 0 5 6 10 13 10
7 0 13 9 14 20 1 11 -2 18 -7 15 -5 -3 -14 4 -20 15 -7 13 -7 20 0 20 5 0 10
-7 10 -15z m-104 -15 c5 0 10 -10 11 -22 l2 -23 -7 23 c-4 13 -11 23 -17 22
-5 -1 -11 4 -13 12 -3 11 -2 11 6 0 5 -8 13 -13 18 -12z m-153 -8 c-2 -6 4
-12 12 -12 8 0 15 -5 15 -10 0 -7 -7 -7 -20 0 -11 6 -18 15 -15 21 4 5 -3 9
-14 9 -12 0 -20 -5 -18 -11 1 -6 -5 -14 -13 -16 -13 -4 -13 -3 0 6 8 6 11 11
7 11 -5 0 -5 5 -2 11 9 14 51 7 48 -9z m54 -24 c-3 -8 -6 -5 -6 6 -1 11 2 17
5 13 3 -3 4 -12 1 -19z m73 18 c0 -2 -7 -7 -16 -10 -8 -3 -12 -2 -9 4 6 10 25
14 25 6z m120 -6 c0 -5 -4 -10 -10 -10 -5 0 -10 5 -10 10 0 6 5 10 10 10 6 0
10 -4 10 -10z m57 -12 c-3 -8 -6 -5 -6 6 -1 11 2 17 5 13 3 -3 4 -12 1 -19z
m-317 -8 c0 -5 -4 -10 -10 -10 -5 0 -10 5 -10 10 0 6 5 10 10 10 6 0 10 -4 10
-10z m22 -19 c-8 -4 -13 -12 -13 -17 1 -15 -42 -10 -46 6 -3 9 -1 11 4 5 10
-12 44 -19 42 -8 -3 16 1 23 14 23 9 0 9 -2 -1 -9z m38 -1 c0 -5 -4 -10 -10
-10 -5 0 -10 5 -10 10 0 6 5 10 10 10 6 0 10 -4 10 -10z m140 0 c0 -5 -4 -10
-10 -10 -5 0 -10 5 -10 10 0 6 5 10 10 10 6 0 10 -4 10 -10z m140 0 c0 -5 -4
-10 -10 -10 -5 0 -10 5 -10 10 0 6 5 10 10 10 6 0 10 -4 10 -10z m-300 -30 c0
-5 -5 -10 -11 -10 -5 0 -7 5 -4 10 3 6 8 10 11 10 2 0 4 -4 4 -10z m27 -12
c-3 -8 -6 -5 -6 6 -1 11 2 17 5 13 3 -3 4 -12 1 -19z m250 0 c-3 -8 -6 -5 -6
6 -1 11 2 17 5 13 3 -3 4 -12 1 -19z m-177 2 c0 -5 -4 -10 -10 -10 -5 0 -10 5
-10 10 0 6 5 10 10 10 6 0 10 -4 10 -10z m120 0 c0 -5 -4 -10 -10 -10 -5 0
-10 5 -10 10 0 6 5 10 10 10 6 0 10 -4 10 -10z m-263 -6 c-3 -3 -12 -4 -19 -1
-8 3 -5 6 6 6 11 1 17 -2 13 -5z m95 -459 c-2 -5 5 -13 15 -17 16 -7 16 -8 -2
-5 -11 2 -19 9 -17 15 1 7 -7 12 -18 12 -11 0 -19 -5 -17 -11 1 -6 -5 -14 -13
-16 -13 -4 -13 -3 0 6 8 6 11 11 7 11 -5 0 -5 5 -2 11 8 13 51 8 47 -6z m43 5
c-3 -5 -12 -10 -18 -10 -7 0 -6 4 3 10 19 12 23 12 15 0z m160 -18 c0 -12 -4
-21 -9 -21 -5 0 -13 -5 -18 -13 -8 -10 -9 -10 -5 2 2 8 10 14 16 12 14 -3 11
29 -4 41 -6 5 -4 7 5 4 8 -2 15 -13 15 -25z m22 -4 c-3 -8 -6 -5 -6 6 -1 11 2
17 5 13 3 -3 4 -12 1 -19z m-297 2 c0 -5 -4 -10 -10 -10 -5 0 -10 5 -10 10 0
6 5 10 10 10 6 0 10 -4 10 -10z m147 4 c-3 -3 -12 -4 -19 -1 -8 3 -5 6 6 6 11
1 17 -2 13 -5z m93 -4 c0 -5 -4 -10 -10 -10 -5 0 -10 5 -10 10 0 6 5 10 10 10
6 0 10 -4 10 -10z m-180 -20 c0 -5 -4 -10 -10 -10 -5 0 -10 5 -10 10 0 6 5 10
10 10 6 0 10 -4 10 -10z m98 -8 c2 -7 8 -10 13 -7 5 4 6 -1 3 -10 -4 -10 -2
-15 7 -13 21 5 19 -41 -2 -53 -13 -6 -19 -6 -19 1 0 5 6 10 13 10 7 0 13 9 14
20 1 11 -2 18 -8 15 -5 -4 -14 4 -20 17 -6 13 -19 25 -30 25 -12 1 -17 -3 -13
-9 4 -7 2 -8 -5 -4 -6 4 -9 12 -6 17 8 12 48 5 53 -9z m155 -2 c-6 -22 -18
-26 -29 -8 -4 6 -3 8 3 5 6 -4 13 0 17 8 8 22 15 18 9 -5z m-298 -30 c-4 -6
-10 -8 -15 -5 -5 3 -8 -4 -7 -15 1 -11 7 -20 14 -20 16 0 17 -16 1 -26 -6 -4
-8 -3 -5 3 4 6 1 13 -7 16 -17 7 -15 53 3 49 9 -2 11 5 6 20 -5 20 -4 21 5 5
6 -9 8 -22 5 -27z m80 20 c3 -5 2 -10 -4 -10 -5 0 -13 5 -16 10 -3 6 -2 10 4
10 5 0 13 -4 16 -10z m-144 -23 c-10 -9 -11 -8 -5 6 3 10 9 15 12 12 3 -3 0
-11 -7 -18z m115 2 c5 1 9 -8 9 -19 0 -11 -4 -20 -10 -19 -5 0 -13 -8 -17 -18
-7 -16 -8 -16 -5 2 2 11 9 19 15 18 7 -2 12 6 12 17 0 11 -5 19 -11 18 -6 -2
-14 4 -16 12 -4 12 -3 12 5 2 5 -8 13 -13 18 -13z m69 2 c-3 -6 -11 -9 -16 -6
-5 4 -9 -3 -9 -14 0 -12 5 -20 12 -18 6 1 13 -7 15 -18 3 -18 2 -18 -5 -2 -4
10 -12 18 -17 18 -6 -1 -10 9 -10 22 0 12 5 21 13 20 6 -2 12 2 12 9 0 6 3 9
6 5 3 -3 3 -11 -1 -16z m-168 -33 c-3 -8 -6 -5 -6 6 -1 11 2 17 5 13 3 -3 4
-12 1 -19z m73 12 c0 -5 -4 -10 -10 -10 -5 0 -10 5 -10 10 0 6 5 10 10 10 6 0
10 -4 10 -10z m120 0 c0 -5 -4 -10 -10 -10 -5 0 -10 5 -10 10 0 6 5 10 10 10
6 0 10 -4 10 -10z m57 -12 c-3 -8 -6 -5 -6 6 -1 11 2 17 5 13 3 -3 4 -12 1
-19z m90 16 c-3 -3 -12 -4 -19 -1 -8 3 -5 6 6 6 11 1 17 -2 13 -5z m-47 -8 c0
-3 -4 -8 -10 -11 -5 -3 -10 -1 -10 4 0 6 5 11 10 11 6 0 10 -2 10 -4z m58 -27
c2 -8 0 -10 -5 -4 -4 6 -16 11 -26 13 -15 3 -16 0 -5 -17 6 -11 17 -19 22 -18
6 1 11 -9 11 -23 0 -15 -5 -24 -12 -23 -7 2 -13 -6 -13 -17 0 -11 6 -19 13
-18 7 2 12 -7 12 -22 0 -14 -5 -24 -11 -23 -5 1 -16 -7 -22 -18 -11 -17 -10
-20 5 -17 10 2 22 8 26 13 5 6 7 4 5 -4 -4 -15 -35 -24 -50 -15 -4 3 -1 16 8
29 9 14 20 22 25 19 5 -3 9 4 9 15 0 12 -6 20 -12 19 -8 -2 -13 7 -13 22 0 15
5 24 13 23 6 -2 12 6 12 18 0 11 -4 18 -9 15 -10 -7 -43 39 -34 48 10 10 47 0
51 -15z m-81 -5 c-2 -3 -17 -7 -33 -10 -17 -2 -24 -1 -17 4 13 8 58 14 50 6z
m-147 -19 c8 0 19 5 23 10 5 6 7 4 5 -5 -3 -8 -15 -14 -28 -14 -13 0 -25 6
-28 14 -2 9 0 11 5 5 4 -5 15 -10 23 -10z m170 5 c0 -5 -6 -10 -13 -10 -7 0
-13 -9 -14 -20 -1 -11 4 -19 10 -17 7 1 12 -9 12 -23 0 -14 -5 -24 -12 -23 -6
2 -11 -6 -10 -17 1 -11 7 -20 14 -20 7 0 13 -5 13 -10 0 -7 -6 -7 -19 -1 -20
11 -23 58 -3 54 7 -2 12 6 12 17 0 11 -5 19 -12 18 -18 -4 -18 41 1 52 20 12
21 12 21 0z m-223 -31 c-3 -21 -23 -39 -42 -38 -5 0 -1 5 10 12 11 7 21 20 23
31 2 12 -1 16 -9 10 -8 -4 -10 -3 -5 5 11 17 26 3 23 -20z m143 9 c0 -6 -6 -6
-14 2 -12 9 -15 8 -13 -10 1 -14 7 -20 21 -18 13 2 22 -4 24 -16 6 -28 -12
-40 -29 -19 -13 16 -12 17 4 4 15 -12 17 -11 17 6 0 14 -7 19 -21 19 -21 -1
-35 27 -23 45 6 11 34 0 34 -13z m27 -10 c-3 -8 -6 -5 -6 6 -1 11 2 17 5 13 3
-3 4 -12 1 -19z m-150 -10 c-3 -8 -6 -5 -6 6 -1 11 2 17 5 13 3 -3 4 -12 1
-19z m70 0 c-3 -8 -6 -5 -6 6 -1 11 2 17 5 13 3 -3 4 -12 1 -19z m153 12 c0
-5 -4 -10 -10 -10 -5 0 -10 5 -10 10 0 6 5 10 10 10 6 0 10 -4 10 -10z m-180
-10 c0 -5 -4 -10 -10 -10 -5 0 -10 5 -10 10 0 6 5 10 10 10 6 0 10 -4 10 -10z
m-120 -10 c0 -5 -4 -10 -10 -10 -5 0 -10 5 -10 10 0 6 5 10 10 10 6 0 10 -4
10 -10z m97 -16 c-2 -3 -17 -7 -33 -10 -17 -2 -24 -1 -17 4 13 8 58 14 50 6z
m23 -12 c-14 -9 -26 -25 -28 -35 -3 -15 0 -16 17 -5 11 6 19 17 18 22 -1 6 9
11 23 11 15 0 24 -5 23 -12 -2 -7 4 -13 12 -13 8 0 15 -5 15 -10 0 -7 -7 -7
-20 0 -11 6 -18 15 -15 21 4 5 -3 9 -15 9 -12 0 -19 -4 -16 -9 3 -5 -5 -16
-19 -25 -25 -17 -35 -11 -31 17 2 18 34 46 51 47 6 0 -1 -8 -15 -18z m-125
-11 c-3 -6 -11 -9 -16 -6 -5 4 -9 -3 -9 -14 0 -12 5 -20 12 -18 6 1 13 -7 15
-18 3 -18 2 -18 -5 -2 -4 10 -12 18 -17 18 -6 -1 -10 9 -10 22 0 12 5 21 13
20 6 -2 12 2 12 9 0 6 3 9 6 5 3 -3 3 -11 -1 -16z m72 -23 c-3 -8 -6 -5 -6 6
-1 11 2 17 5 13 3 -3 4 -12 1 -19z m-47 2 c0 -5 -4 -10 -10 -10 -5 0 -10 5
-10 10 0 6 5 10 10 10 6 0 10 -4 10 -10z m207 -12 c-3 -8 -6 -5 -6 6 -1 11 2
17 5 13 3 -3 4 -12 1 -19z m73 12 c0 -5 -4 -10 -10 -10 -5 0 -10 5 -10 10 0 6
5 10 10 10 6 0 10 -4 10 -10z m-244 -43 c-2 -15 -10 -22 -25 -21 -22 1 -26
-23 -6 -39 6 -5 4 -7 -5 -4 -8 2 -15 14 -15 28 0 18 5 23 20 21 15 -2 21 3 22
18 2 18 -1 19 -13 10 -9 -8 -14 -9 -14 -2 0 12 21 22 32 15 4 -2 6 -14 4 -26z
m104 23 c0 -5 -4 -10 -10 -10 -5 0 -10 5 -10 10 0 6 5 10 10 10 6 0 10 -4 10
-10z m-75 -20 c3 -5 1 -10 -4 -10 -6 0 -11 5 -11 10 0 6 2 10 4 10 3 0 8 -4
11 -10z m45 -3 c0 -7 9 -13 20 -14 11 -1 19 3 17 9 -1 6 5 13 13 15 12 4 12 3
2 -5 -8 -5 -13 -13 -13 -18 2 -17 -40 -11 -50 7 -6 13 -6 19 1 19 5 0 10 -6
10 -13z m129 -2 c3 -3 -7 -4 -23 -1 -16 3 -31 8 -35 11 -3 3 7 4 23 1 16 -3
31 -8 35 -11z m-288 -18 c-10 -9 -11 -8 -5 6 3 10 9 15 12 12 3 -3 0 -11 -7
-18z m266 -19 c-3 -8 -6 -5 -6 6 -1 11 2 17 5 13 3 -3 4 -12 1 -19z m38 12 c3
-5 1 -10 -4 -10 -6 0 -11 5 -11 10 0 6 2 10 4 10 3 0 8 -4 11 -10z m-288 -22
c-3 -8 -6 -5 -6 6 -1 11 2 17 5 13 3 -3 4 -12 1 -19z m100 16 c-3 -3 -12 -4
-19 -1 -8 3 -5 6 6 6 11 1 17 -2 13 -5z m98 -4 c-3 -5 -12 -10 -18 -10 -7 0
-6 4 3 10 19 12 23 12 15 0z m142 -6 c-3 -3 -12 -4 -19 -1 -8 3 -5 6 6 6 11 1
17 -2 13 -5z"/>
<path d="M1224 6240 c0 -12 7 -18 18 -17 10 1 18 8 18 17 0 9 -8 16 -18 17
-11 1 -18 -5 -18 -17z"/>
<path d="M1224 6080 c0 -12 7 -18 18 -17 10 1 18 8 18 17 0 9 -8 16 -18 17
-11 1 -18 -5 -18 -17z"/>
<path d="M1300 6080 c0 -9 8 -16 18 -17 11 -1 18 5 18 17 0 12 -7 18 -18 17
-10 -1 -18 -8 -18 -17z"/>
<path d="M1143 4959 c1 -10 9 -17 18 -16 10 1 17 9 16 18 -1 10 -9 17 -18 16
-10 -1 -17 -9 -16 -18z"/>
<path d="M783 4760 c1 -11 5 -20 9 -20 11 0 10 28 -1 35 -6 3 -9 -4 -8 -15z"/>
<path d="M1900 4008 c0 -4 9 -8 20 -8 11 0 20 4 20 8 0 4 -9 8 -20 8 -11 0
-20 -4 -20 -8z"/>
<path d="M1260 3192 c0 -4 9 -8 20 -8 11 0 20 4 20 8 0 4 -9 8 -20 8 -11 0
-20 -4 -20 -8z"/>
<path d="M1030 2640 c0 -5 5 -10 11 -10 5 0 7 5 4 10 -3 6 -8 10 -11 10 -2 0
-4 -4 -4 -10z"/>
<path d="M986 2558 c3 -5 10 -6 15 -3 13 9 11 12 -6 12 -8 0 -12 -4 -9 -9z"/>
<path d="M825 2391 c-3 -6 4 -9 15 -8 11 1 20 5 20 9 0 11 -28 10 -35 -1z"/>
<path d="M1584 2240 c0 -11 4 -20 8 -20 4 0 8 9 8 20 0 11 -4 20 -8 20 -4 0
-8 -9 -8 -20z"/>
<path d="M1583 2040 c-1 -11 2 -18 8 -15 11 7 12 35 1 35 -4 0 -8 -9 -9 -20z"/>
<path d="M340 3360 c0 -9 8 -16 18 -17 11 -1 18 5 18 17 0 12 -7 18 -18 17
-10 -1 -18 -8 -18 -17z"/>
<path d="M1232 2321 c6 -11 17 -19 22 -18 6 1 11 -9 11 -23 0 -14 -5 -24 -11
-23 -5 1 -16 -7 -22 -18 -11 -17 -10 -20 5 -17 10 2 24 10 31 18 11 13 13 13
25 0 6 -8 20 -16 30 -18 15 -3 16 0 5 17 -6 11 -17 19 -22 18 -6 -1 -11 9 -11
23 0 14 5 24 11 23 5 -1 16 7 22 18 11 17 10 20 -5 17 -10 -2 -24 -10 -30 -18
-12 -13 -14 -13 -25 0 -7 8 -21 16 -31 18 -15 3 -16 0 -5 -17z"/>
<path d="M943 2039 c1 -10 9 -17 18 -16 10 1 17 9 16 18 -1 10 -9 17 -18 16
-10 -1 -17 -9 -16 -18z"/>
<path d="M1103 2041 c-1 -9 6 -17 16 -18 9 -1 17 6 18 16 1 9 -6 17 -16 18 -9
1 -17 -6 -18 -16z"/>
<path d="M1423 2039 c1 -10 9 -17 18 -16 10 1 17 9 16 18 -1 10 -9 17 -18 16
-10 -1 -17 -9 -16 -18z"/>
<path d="M1423 1159 c1 -10 9 -17 18 -16 10 1 17 9 16 18 -1 10 -9 17 -18 16
-10 -1 -17 -9 -16 -18z"/>
<path d="M1502 6283 c2 -10 10 -24 18 -30 13 -12 13 -14 0 -25 -8 -7 -16 -21
-18 -31 -3 -15 0 -16 17 -5 11 6 19 17 18 22 -1 6 9 11 23 11 15 0 24 -5 23
-12 -2 -7 1 -13 6 -13 4 0 8 18 8 40 0 22 -4 40 -8 40 -5 0 -8 -6 -6 -12 1 -8
-8 -13 -23 -13 -14 0 -24 5 -23 11 1 5 -7 16 -18 22 -17 11 -20 10 -17 -5z"/>
<path d="M0 5000 l0 -200 200 0 200 0 0 78 c1 42 2 132 3 200 l2 122 -202 0
-203 0 0 -200z"/>
<path d="M795 5110 c3 -5 11 -10 16 -10 6 0 7 5 4 10 -3 6 -11 10 -16 10 -6 0
-7 -4 -4 -10z"/>
<path d="M705 4791 c-3 -6 4 -9 15 -8 11 1 20 5 20 9 0 11 -28 10 -35 -1z"/>
<path d="M75 3404 c-11 -8 -19 -18 -17 -22 1 -4 -8 -7 -20 -7 -13 0 -22 5 -21
13 2 6 -1 12 -6 12 -4 0 -8 -18 -8 -40 0 -22 4 -40 8 -40 5 0 8 6 7 13 -2 7 7
12 22 12 14 0 24 -5 23 -11 -1 -5 7 -16 18 -22 17 -11 20 -10 17 5 -2 10 -10
24 -18 31 -13 11 -13 13 0 25 8 6 16 20 18 30 3 20 3 21 -23 1z"/>
<path d="M340 3208 c0 -11 28 -10 35 1 3 6 -4 9 -15 8 -11 -1 -20 -5 -20 -9z"/>
<path d="M20 1601 c-12 -4 -16 -23 -17 -73 0 -38 3 -68 7 -68 5 0 7 11 6 25
-2 13 1 22 5 19 11 -6 6 -43 -7 -52 -12 -8 -15 -112 -4 -112 5 0 7 11 6 25 -2
13 1 22 5 19 11 -6 6 -43 -7 -52 -13 -10 -17 -52 -5 -52 6 0 10 6 8 13 -3 18
46 15 50 -3 3 -9 1 -11 -4 -5 -11 13 -47 19 -39 6 4 -5 -2 -14 -11 -20 -16 -9
-16 -12 -3 -21 10 -6 11 -10 3 -10 -7 0 -13 -8 -13 -17 0 -14 9 -18 43 -20 30
-1 37 1 26 7 -17 10 -21 51 -5 49 5 0 13 5 18 13 8 10 9 10 5 -2 -2 -8 -9 -14
-15 -13 -6 2 -10 -6 -9 -17 1 -11 7 -20 13 -20 7 0 15 -6 18 -12 3 -9 8 -8 16
5 6 9 15 15 21 12 5 -4 9 3 9 15 0 12 -4 19 -9 15 -6 -3 -15 4 -21 15 -7 13
-7 20 0 20 5 0 10 -7 10 -15 0 -8 6 -14 13 -12 7 1 12 -8 12 -23 0 -15 -5 -24
-12 -23 -7 2 -13 -1 -13 -5 0 -12 189 -12 196 0 4 6 10 5 15 -3 8 -11 11 -11
20 4 6 9 14 15 20 12 5 -4 9 3 9 15 0 12 -4 19 -9 15 -6 -3 -15 4 -21 15 -7
13 -7 20 0 20 5 0 10 -7 10 -15 0 -8 6 -14 13 -13 7 2 12 -7 12 -22 0 -15 -5
-24 -12 -22 -7 1 -13 -3 -13 -9 0 -6 8 -9 18 -7 13 2 17 14 18 51 1 26 -2 47
-8 47 -5 0 -6 -5 -2 -12 5 -7 3 -8 -6 -3 -11 7 -10 10 1 19 18 14 26 156 9
156 -6 0 -8 -5 -4 -12 5 -7 3 -8 -6 -3 -11 7 -10 10 1 19 19 15 25 136 7 137
-7 0 -23 2 -35 3 -13 2 -23 -1 -23 -6 0 -5 -6 -6 -12 -2 -21 13 -47 11 -52 -3
-6 -16 24 -14 37 2 5 6 7 4 4 -5 -5 -19 -53 -20 -49 -2 2 10 -4 11 -19 7 -14
-5 -19 -3 -15 3 4 7 -4 8 -25 2 -20 -6 -39 -6 -50 1 -11 5 -19 6 -19 2 0 -7
-55 -10 -62 -3 -8 6 -35 6 -48 1z m36 -22 c5 1 9 -8 9 -19 0 -11 -4 -20 -10
-19 -5 0 -13 -8 -17 -18 -7 -16 -8 -16 -5 2 2 11 9 19 15 18 7 -2 12 6 12 17
0 11 -5 19 -11 18 -6 -2 -14 4 -16 12 -4 12 -3 12 5 2 5 -8 13 -13 18 -13z
m309 2 c-3 -6 -11 -9 -16 -6 -5 4 -9 -3 -9 -15 0 -12 4 -19 9 -16 5 3 16 -5
25 -19 17 -25 11 -35 -17 -31 -18 2 -46 34 -47 51 0 6 8 -1 18 -15 9 -14 25
-26 35 -28 15 -3 16 0 5 17 -6 11 -17 19 -22 18 -6 -1 -11 9 -11 23 0 15 5 24
13 23 6 -2 12 2 12 9 0 6 3 9 6 5 3 -3 3 -11 -1 -16z m-222 -4 c-3 -5 -14 -7
-24 -4 -14 4 -19 0 -19 -14 0 -10 5 -18 12 -16 6 1 13 -7 14 -18 2 -15 2 -16
-2 -2 -3 9 -10 15 -15 11 -11 -6 -23 21 -16 39 2 6 16 12 30 12 14 0 23 -4 20
-8z m67 3 c0 -5 -4 -10 -10 -10 -5 0 -10 5 -10 10 0 6 5 10 10 10 6 0 10 -4
10 -10z m-180 -20 c0 -5 -4 -10 -10 -10 -5 0 -10 5 -10 10 0 6 5 10 10 10 6 0
10 -4 10 -10z m153 -8 c-2 -7 6 -12 17 -12 11 0 19 5 18 12 -2 6 6 13 17 15
18 3 18 2 2 -5 -10 -4 -18 -12 -18 -17 1 -6 -9 -10 -21 -10 -14 0 -22 5 -20
14 2 10 -4 12 -25 7 -21 -5 -24 -4 -13 4 19 13 46 8 43 -8z m207 8 c0 -5 -4
-10 -10 -10 -5 0 -10 5 -10 10 0 6 5 10 10 10 6 0 10 -4 10 -10z m-93 -6 c-3
-3 -12 -4 -19 -1 -8 3 -5 6 6 6 11 1 17 -2 13 -5z m-33 -34 c0 -13 -6 -25 -14
-28 -9 -2 -11 0 -5 5 6 4 10 15 10 23 0 8 -4 19 -10 23 -6 5 -4 7 5 5 8 -3 14
-15 14 -28z m-94 -1 c0 -6 -4 -7 -10 -4 -5 3 -10 11 -10 16 0 6 5 7 10 4 6 -3
10 -11 10 -16z m130 1 c0 -5 -4 -10 -10 -10 -5 0 -10 5 -10 10 0 6 5 10 10 10
6 0 10 -4 10 -10z m-220 -15 c8 0 19 5 23 10 5 6 7 4 5 -5 -3 -8 -15 -14 -28
-14 -13 0 -25 6 -28 14 -2 9 0 11 5 5 4 -5 15 -10 23 -10z m76 -7 c5 -7 3 -8
-5 -4 -8 6 -11 2 -9 -10 2 -11 11 -24 22 -30 17 -10 17 -12 2 -17 -10 -4 -15
-3 -12 2 3 5 0 11 -8 14 -14 6 -16 57 -2 57 3 0 8 -5 12 -12z m66 -3 c-2 -5 5
-13 15 -17 16 -7 16 -8 -2 -5 -11 2 -19 9 -17 15 1 7 -7 12 -18 12 -11 0 -19
-5 -17 -11 1 -6 -5 -14 -13 -16 -13 -4 -13 -3 0 6 8 6 11 11 7 11 -5 0 -5 5
-2 11 8 13 51 8 47 -6z m104 -21 c3 -16 2 -26 -1 -23 -3 4 -8 19 -11 35 -3 16
-2 26 1 23 3 -4 8 -19 11 -35z m-279 -6 c-3 -8 -6 -5 -6 6 -1 11 2 17 5 13 3
-3 4 -12 1 -19z m70 0 c-3 -8 -6 -5 -6 6 -1 11 2 17 5 13 3 -3 4 -12 1 -19z
m180 16 c-3 -3 -12 -4 -19 -1 -8 3 -5 6 6 6 11 1 17 -2 13 -5z m-207 -14 c0
-5 -4 -10 -10 -10 -5 0 -10 5 -10 10 0 6 5 10 10 10 6 0 10 -4 10 -10z m277 4
c-3 -3 -12 -4 -19 -1 -8 3 -5 6 6 6 11 1 17 -2 13 -5z m-157 -14 c0 -5 -4 -10
-10 -10 -5 0 -10 5 -10 10 0 6 5 10 10 10 6 0 10 -4 10 -10z m95 -10 c0 -7 -6
-14 -13 -16 -7 -1 -8 0 -2 3 16 8 12 19 -9 20 -13 1 -18 -5 -17 -20 1 -17 -5
-22 -24 -22 -26 0 -36 26 -12 31 7 1 8 0 2 -3 -16 -8 -12 -19 9 -20 13 -1 18
4 16 15 -1 9 -1 20 2 24 7 13 48 2 48 -12z m-238 -6 c-2 -3 -17 -7 -33 -10
-17 -2 -24 -1 -17 4 13 8 58 14 50 6z m23 -12 c-14 -9 -26 -25 -28 -35 -3 -15
0 -16 17 -5 11 6 19 17 18 22 -1 6 8 11 21 11 12 0 22 -4 21 -9 0 -5 5 -13 13
-18 10 -8 10 -9 -2 -5 -8 2 -14 10 -12 16 1 6 -7 11 -19 11 -11 0 -18 -4 -15
-9 3 -5 -5 -16 -19 -25 -25 -17 -35 -11 -31 17 2 18 34 46 51 47 6 0 -1 -8
-15 -18z m275 -3 c0 -8 -6 -13 -12 -11 -7 1 -13 -7 -13 -19 0 -11 4 -18 9 -15
5 3 16 -5 25 -19 9 -13 12 -26 8 -29 -14 -8 -43 0 -53 15 -5 8 -9 10 -9 4 0
-5 -6 -3 -13 5 -7 8 -20 16 -30 18 -15 3 -16 0 -5 -17 6 -11 17 -19 22 -18 6
1 11 -8 11 -20 0 -13 -4 -23 -9 -22 -5 0 -13 -5 -18 -13 -8 -10 -9 -10 -5 2 2
8 10 14 16 13 6 -2 11 6 11 18 0 11 -4 18 -9 15 -5 -3 -16 5 -25 19 -9 13 -12
26 -8 29 14 8 43 0 53 -15 5 -8 9 -9 9 -4 0 6 6 3 13 -5 7 -8 20 -16 30 -18
15 -3 16 0 5 17 -6 11 -17 19 -22 18 -6 -1 -11 9 -11 23 0 15 5 24 13 23 14
-3 16 13 2 20 -6 3 -5 4 2 3 7 -2 13 -9 13 -17z m-42 -4 c-3 -9 -8 -14 -10
-11 -3 3 -2 9 2 15 9 16 15 13 8 -4z m-136 -27 c-2 -11 -13 -26 -25 -32 -11
-6 -21 -15 -21 -21 -1 -18 -41 -13 -52 6 -6 13 -6 19 1 19 5 0 10 -6 10 -13 0
-7 9 -13 20 -14 11 -1 18 2 15 8 -4 5 4 14 17 20 13 6 25 19 25 30 1 12 -3 17
-9 13 -7 -4 -8 -2 -4 5 11 17 26 3 23 -21z m-150 0 c-3 -8 -6 -5 -6 6 -1 11 2
17 5 13 3 -3 4 -12 1 -19z m170 -10 c-3 -8 -6 -5 -6 6 -1 11 2 17 5 13 3 -3 4
-12 1 -19z m90 16 c-3 -3 -12 -4 -19 -1 -8 3 -5 6 6 6 11 1 17 -2 13 -5z m93
-4 c0 -5 -4 -10 -10 -10 -5 0 -10 5 -10 10 0 6 5 10 10 10 6 0 10 -4 10 -10z
m-140 -4 c0 -3 -4 -8 -10 -11 -5 -3 -10 -1 -10 4 0 6 5 11 10 11 6 0 10 -2 10
-4z m-120 -16 c0 -5 -4 -10 -10 -10 -5 0 -10 5 -10 10 0 6 5 10 10 10 6 0 10
-4 10 -10z m-75 -20 c3 -5 1 -10 -4 -10 -6 0 -11 5 -11 10 0 6 2 10 4 10 3 0
8 -4 11 -10z m172 4 c-2 -3 -17 -7 -33 -10 -17 -2 -24 -1 -17 4 13 8 58 14 50
6z m23 -14 c0 -5 -6 -10 -13 -10 -7 0 -13 -9 -14 -20 -1 -11 2 -18 7 -15 5 3
14 -4 20 -15 7 -13 7 -20 0 -20 -5 0 -10 7 -10 15 0 8 -5 14 -12 13 -18 -4
-18 41 1 52 20 12 21 12 21 0z m-164 -36 c3 -16 2 -26 -1 -23 -3 4 -8 19 -11
35 -3 16 -2 26 1 23 3 -4 8 -19 11 -35z m84 16 c0 -5 -5 -10 -11 -10 -5 0 -7
5 -4 10 3 6 8 10 11 10 2 0 4 -4 4 -10z m27 -12 c-3 -8 -6 -5 -6 6 -1 11 2 17
5 13 3 -3 4 -12 1 -19z m-140 6 c-3 -3 -12 -4 -19 -1 -8 3 -5 6 6 6 11 1 17
-2 13 -5z m213 -4 c0 -5 -4 -10 -10 -10 -5 0 -10 5 -10 10 0 6 5 10 10 10 6 0
10 -4 10 -10z m-143 -6 c-3 -3 -12 -4 -19 -1 -8 3 -5 6 6 6 11 1 17 -2 13 -5z
m240 0 c-3 -3 -12 -4 -19 -1 -8 3 -5 6 6 6 11 1 17 -2 13 -5z m-184 -31 c-1
-12 5 -19 18 -20 18 -2 19 0 7 15 -12 15 -11 16 4 3 22 -17 14 -32 -15 -27
-15 2 -21 10 -20 23 1 12 -5 19 -18 20 -18 2 -19 0 -7 -15 12 -15 11 -16 -4
-3 -22 17 -14 32 15 27 15 -2 21 -10 20 -23z m145 1 c0 -17 -3 -22 -8 -13 -5
6 -6 18 -3 26 8 19 11 16 11 -13z m-285 -19 c-3 -9 -8 -14 -10 -11 -3 3 -2 9
2 15 9 16 15 13 8 -4z m247 -5 c0 -5 -4 -10 -10 -10 -5 0 -10 5 -10 10 0 6 5
10 10 10 6 0 10 -4 10 -10z m-180 -20 c0 -5 -4 -10 -10 -10 -5 0 -10 5 -10 10
0 6 5 10 10 10 6 0 10 -4 10 -10z m153 -8 c-2 -7 6 -12 17 -12 11 0 19 5 18
11 -2 6 4 14 12 16 12 4 12 3 2 -5 -8 -5 -13 -13 -13 -18 1 -5 -8 -9 -19 -9
-11 0 -20 4 -19 10 0 5 -8 13 -18 17 -16 7 -16 8 2 5 11 -2 19 -9 18 -15z m87
8 c0 -5 -4 -10 -10 -10 -5 0 -10 5 -10 10 0 6 5 10 10 10 6 0 10 -4 10 -10z
m-143 -6 c-3 -3 -12 -4 -19 -1 -8 3 -5 6 6 6 11 1 17 -2 13 -5z m33 -8 c0 -2
-7 -7 -16 -10 -8 -3 -12 -2 -9 4 6 10 25 14 25 6z"/>
</g>
</svg>
